<?xml version="1.0" encoding="UTF-8"?>
<svg version="1.1" xmlns="http://www.w3.org/2000/svg" width="480" height="480">
<path d="M0 0 C158.4 0 316.8 0 480 0 C480 158.4 480 316.8 480 480 C321.6 480 163.2 480 0 480 C0 321.6 0 163.2 0 0 Z " fill="#E5E7E6" transform="translate(0,0)"/>
<path d="M0 0 C3.79842028 1.40886861 7.15096195 3.17119556 10.625 5.25 C18.25932291 9.80967779 26.09995041 13.98568566 33.9375 18.18359375 C35.43410156 18.98700195 35.43410156 18.98700195 36.9609375 19.80664062 C38.98535391 20.89300804 41.01139752 21.97634868 43.0390625 23.05664062 C64.11052355 34.39548239 64.11052355 34.39548239 67 41 C67.5625 44.5625 67.5625 44.5625 67 48 C63.1859098 52.56355151 58.67819534 55.15871158 53.5625 58 C51.86428228 58.96822216 50.16637861 59.93699529 48.46875 60.90625 C45.70059051 62.47487371 42.93016642 64.03923343 40.15625 65.59765625 C28.61014968 72.10802531 18.21985675 78.39534121 9 88 C4.16641593 92.84154714 4.16641593 92.84154714 2.34179688 94.57885742 C-2.04359926 98.81288744 -5.61434937 103.29422454 -9.0625 108.3125 C-9.58271729 109.06160645 -10.10293457 109.81071289 -10.63891602 110.58251953 C-16.1763475 118.61374957 -20.99220829 126.59302372 -24.91015625 135.54296875 C-25.74150172 137.41722072 -26.66396619 139.25132089 -27.625 141.0625 C-29.20513754 144.43824839 -30.23405077 147.80873465 -31.24609375 151.390625 C-31.71633142 153.01818337 -32.22350932 154.63605637 -32.78515625 156.234375 C-39.02734427 174.42768682 -40.0847128 198.96826323 -33 217 C-31.52191281 219.67053177 -29.99229865 221.65010928 -28 224 C-27.505 224.886875 -27.01 225.77375 -26.5 226.6875 C-24.72235872 229.42803031 -22.55414896 230.99809947 -20 233 C-20 233.66 -20 234.32 -20 235 C-19.154375 235.268125 -18.30875 235.53625 -17.4375 235.8125 C-14 237 -14 237 -10.9375 238.55078125 C-6.23281025 240.57897555 -1.61415016 240.43962665 3.4375 240.375 C4.79198242 240.39240234 4.79198242 240.39240234 6.17382812 240.41015625 C10.63805935 240.3907606 14.30695467 240.08415177 18.47265625 238.4140625 C22 237 22 237 25 238 C23.67162109 238.69222656 23.67162109 238.69222656 22.31640625 239.3984375 C14.65470125 243.42169767 7.14484369 247.63453221 -0.28857422 252.06469727 C-6.7900929 255.9204202 -13.40106046 259.56204644 -20.04956055 263.1574707 C-24.57104518 265.6141271 -28.94424207 268.17602016 -33.22167969 271.03979492 C-36.24200737 272.67062259 -38.67958126 272.50119528 -42 272 C-45.5386994 270.34860695 -46.81070153 269.28394771 -49 266 C-49.25828552 263.7348175 -49.25828552 263.7348175 -49.27124023 261.0480957 C-49.28652016 259.53425041 -49.28652016 259.53425041 -49.30210876 257.98982239 C-49.30424881 256.89618881 -49.30638885 255.80255524 -49.30859375 254.67578125 C-49.33379041 252.34309686 -49.35918779 250.01041462 -49.38476562 247.67773438 C-49.4132882 244.01392379 -49.43730481 240.35015169 -49.45629883 236.6862793 C-49.70928673 195.84402323 -62.51694786 158.41150639 -91.33984375 128.578125 C-108.79889529 111.65745831 -126.98858356 99.27546319 -152.13720703 99.38574219 C-159.43837578 99.68703659 -164.97493017 101.82583162 -171 106 C-171.67160156 106.44472656 -172.34320313 106.88945312 -173.03515625 107.34765625 C-181.92536309 114.04950448 -186.08498761 124.6254528 -189 135 C-189.33 135 -189.66 135 -190 135 C-190.06962306 126.62870892 -190.12287344 118.25753957 -190.15543652 109.8860302 C-190.17106807 105.99846009 -190.19226004 102.11108862 -190.22631836 98.22363281 C-190.25900201 94.46943341 -190.27687189 90.71542464 -190.28463173 86.9610939 C-190.29015915 85.53140387 -190.3009529 84.10172384 -190.31719017 82.67211533 C-190.33908159 80.66416416 -190.3402264 78.65601969 -190.34057617 76.64794922 C-190.34723801 75.50655487 -190.35389984 74.36516052 -190.36076355 73.18917847 C-189.85742713 68.73964445 -188.304988 65.39820143 -185.25 62.125 C-181.93363172 60.46681586 -179.67071435 60.56449152 -176 61 C-173.61041966 62.27952706 -171.30873677 63.58915611 -169 65 C-167.90042969 65.66257812 -166.80085938 66.32515625 -165.66796875 67.0078125 C-165.10650146 67.34965576 -164.54503418 67.69149902 -163.96655273 68.04370117 C-135.76946597 85.18174115 -110.00076564 96.23067294 -76.5 96.1875 C-75.78645355 96.18756042 -75.0729071 96.18762085 -74.33773804 96.18768311 C-56.30097682 96.38767449 -56.30097682 96.38767449 -39 92 C-37.25560529 91.58015345 -35.50489336 91.18604159 -33.75 90.8125 C-20.68916202 87.59554483 -8.71446821 82.1626496 2 74 C2.80953125 73.40832031 3.6190625 72.81664062 4.453125 72.20703125 C11.35170868 66.70458951 15.03731196 59.71631341 19 52 C19.39574219 51.37867188 19.79148437 50.75734375 20.19921875 50.1171875 C22.86709585 43.06358074 22.06827986 31.59685943 19.5 24.5625 C15.19840291 15.79327926 9.17500221 8.65836332 1.6875 2.4609375 C1.130625 1.97882813 0.57375 1.49671875 0 1 C0 0.67 0 0.34 0 0 Z " fill="#070707" transform="translate(300,118)"/>
<path d="M0 0 C0.33 0 0.66 0 1 0 C1.12432113 5.12279571 1.2146756 10.2446986 1.2746582 15.36865234 C1.29968233 17.10871696 1.33371294 18.84867773 1.37719727 20.58837891 C1.4383892 23.10084755 1.46632959 25.6119178 1.48828125 28.125 C1.51408768 28.89303955 1.5398941 29.6610791 1.56648254 30.45239258 C1.56952457 36.41444085 -0.17053224 40.42758824 -4 45 C-6.42504883 46.94287109 -6.42504883 46.94287109 -8.95703125 48.2734375 C-9.89716064 48.78285889 -10.83729004 49.29228027 -11.8059082 49.81713867 C-12.7980835 50.33123291 -13.79025879 50.84532715 -14.8125 51.375 C-16.88673212 52.50148744 -18.95964395 53.63040925 -21.03125 54.76171875 C-22.04703125 55.31005371 -23.0628125 55.85838867 -24.109375 56.42333984 C-42.58085971 66.49841149 -57.19860617 78.23982146 -64.1171875 98.97265625 C-65.32565154 103.73022661 -65.50532143 108.48420603 -65.5625 113.375 C-65.57724365 114.20700928 -65.5919873 115.03901855 -65.60717773 115.89624023 C-65.48545267 123.1800639 -63.25390754 128.34154495 -58.5625 133.875 C-54.18945348 137.50142882 -50.84829878 138.26784846 -45.16479492 138.20776367 C-41.55941171 137.86174122 -38.56571598 136.52650591 -35.3125 135 C-34.62260986 134.68748291 -33.93271973 134.37496582 -33.22192383 134.05297852 C-27.55204166 131.41486754 -22.31315588 128.29908306 -17.046875 124.92578125 C-11.23483103 121.25227141 -5.1513521 118.0639291 1 115 C1.14700894 118.95793295 1.2346378 122.91515092 1.3125 126.875 C1.35439453 127.98359375 1.39628906 129.0921875 1.43945312 130.234375 C1.55048242 137.78436708 0.84670631 143.96373557 -4 150 C-7.09903343 152.49628095 -10.46413859 154.19808767 -14 156 C-15.65744016 156.95545965 -17.31461309 157.91147507 -18.9637146 158.8812561 C-21.33713179 160.27579019 -23.72540005 161.64391828 -26.11303711 163.01391602 C-27.32877522 163.71264413 -28.54329829 164.41349063 -29.7565918 165.11645508 C-44.50142506 173.65816619 -57.51609002 180.30626914 -75 179 C-78.75 178 -78.75 178 -81 177 C-81 176.34 -81 175.68 -81 175 C-81.721875 174.9175 -82.44375 174.835 -83.1875 174.75 C-88.72529526 173.2732546 -91.22293554 169.90245905 -94.125 165.1875 C-104.10556038 147.68313256 -104.20432371 128.09494405 -99.390625 108.828125 C-88.04216681 67.66879156 -62.56088783 36.4335405 -25.69580078 15.48925781 C-23.48054712 14.23613967 -21.2647432 12.9839937 -19.04833984 11.73291016 C-14.9776602 9.41882365 -10.94884873 7.04015993 -6.9375 4.625 C-6.33115723 4.26204834 -5.72481445 3.89909668 -5.10009766 3.52514648 C-2.39753636 1.96679147 -2.39753636 1.96679147 0 0 Z " fill="#070707" transform="translate(371,173)"/>
<path d="M0 0 C1.01707031 0.54140625 1.01707031 0.54140625 2.0546875 1.09375 C2.0546875 1.75375 2.0546875 2.41375 2.0546875 3.09375 C2.75464844 3.18398437 3.45460938 3.27421875 4.17578125 3.3671875 C7.67116312 4.24933272 10.08465718 5.77221876 13.1171875 7.71875 C14.26989098 8.45200435 15.42355899 9.18374436 16.578125 9.9140625 C17.15788086 10.28176758 17.73763672 10.64947266 18.33496094 11.02832031 C20.92426882 12.6324855 23.58572993 14.10421178 26.2421875 15.59375 C36.9588037 21.85689113 46.11687227 29.36643883 51.0546875 41.09375 C52.87105575 49.59387854 54.08219612 59.62332061 49.6171875 67.40625 C48.47498774 69.00216422 47.28537053 70.565031 46.0546875 72.09375 C45.14396484 73.32158203 45.14396484 73.32158203 44.21484375 74.57421875 C29.81973771 92.39541529 4.98504135 100.13876914 -16.9453125 103.09375 C-18.16992188 103.27550781 -19.39453125 103.45726562 -20.65625 103.64453125 C-54.55999827 107.75914299 -84.70210661 98.94764335 -113.5390625 81.76953125 C-114.99227905 80.90448975 -114.99227905 80.90448975 -116.47485352 80.02197266 C-118.35861318 78.8943422 -120.23709694 77.75783152 -122.10913086 76.61083984 C-127.86701064 73.12943002 -133.61741653 70.38451809 -139.9453125 68.09375 C-138.9453125 65.09375 -138.9453125 65.09375 -137.1171875 63.98828125 C-135.91835937 63.45267578 -135.91835937 63.45267578 -134.6953125 62.90625 C-130.3799652 60.86604282 -126.36487709 58.56735227 -122.3203125 56.03125 C-108.01711678 47.16092112 -108.01711678 47.16092112 -102.22265625 47.5390625 C-96.65126107 48.8960747 -91.82174193 52.17808388 -86.9453125 55.09375 C-84.17072342 56.74367501 -81.39573687 58.39291476 -78.61962891 60.0402832 C-76.708951 61.17778898 -74.80217897 62.3218883 -72.89990234 63.47338867 C-55.74230339 73.76764006 -38.51742187 77.26299613 -18.7578125 72.53125 C-9.13835028 69.51254583 -0.99539503 65.01556247 4.0546875 56.09375 C5.71201491 50.71566767 6.15722327 45.05498545 4.171875 39.72265625 C-0.02139701 32.47859054 -6.81338078 29.01198951 -13.9453125 25.09375 C-15.2965503 24.33246137 -16.64678591 23.56939159 -17.99609375 22.8046875 C-20.71887675 21.26529013 -23.44543416 19.73297041 -26.17578125 18.20703125 C-29.44420483 16.37694497 -32.70676023 14.53891617 -35.9453125 12.65625 C-37.1209375 11.97755859 -37.1209375 11.97755859 -38.3203125 11.28515625 C-38.8565625 10.89199219 -39.3928125 10.49882813 -39.9453125 10.09375 C-39.9453125 9.43375 -39.9453125 8.77375 -39.9453125 8.09375 C-37.32316922 6.58855613 -34.69787042 5.08943681 -32.0703125 3.59375 C-31.32394531 3.16449219 -30.57757813 2.73523438 -29.80859375 2.29296875 C-29.09316406 1.88691406 -28.37773437 1.48085937 -27.640625 1.0625 C-26.6508667 0.49692383 -26.6508667 0.49692383 -25.64111328 -0.08007812 C-23.9453125 -0.90625 -23.9453125 -0.90625 -21.9453125 -0.90625 C-21.9453125 -1.56625 -21.9453125 -2.22625 -21.9453125 -2.90625 C-13.86139163 -5.60089029 -7.42545925 -3.70244505 0 0 Z " fill="#070707" transform="translate(261.9453125,103.90625)"/>
<path d="M0 0 C31.36382948 18.44931146 51.88154659 49.32819705 61.87109375 83.8984375 C62.08185547 84.60548828 62.29261719 85.31253906 62.50976562 86.04101562 C65.24899525 95.89326119 65.26090467 106.20413908 65.40234375 116.3671875 C65.44008968 118.49739609 65.47785052 120.62760442 65.515625 122.7578125 C65.56946166 126.06703858 65.62172308 129.37628546 65.67333984 132.68554688 C65.725041 135.9128376 65.78223562 139.13999767 65.83984375 142.3671875 C65.85341919 143.35883911 65.86699463 144.35049072 65.88098145 145.37219238 C65.89769897 146.29415405 65.9144165 147.21611572 65.93164062 148.16601562 C65.9441687 148.97365356 65.95669678 149.7812915 65.96960449 150.61340332 C66.11860558 152.79943297 66.52017276 154.73323997 67.12109375 156.8359375 C59.00864089 153.91545447 51.5762164 149.10944158 44.12109375 144.8359375 C42.63416016 143.98902344 42.63416016 143.98902344 41.1171875 143.125 C35.90661636 139.93341497 32.58835154 136.47463933 30.12109375 130.8359375 C29.45389185 127.23972149 29.44550918 123.73983716 29.484375 120.08984375 C29.46880806 118.57401955 29.46880806 118.57401955 29.45292664 117.02757263 C29.42338899 113.81751021 29.4265957 110.60861034 29.43359375 107.3984375 C29.42466128 104.19216229 29.40855623 100.98619331 29.38212585 97.78001404 C29.36737126 95.79216101 29.36331084 93.80418866 29.37190247 91.81629944 C29.30500443 75.42050254 22.40053396 61.37554893 11.03125 49.6875 C3.56234735 42.62551472 -5.18550379 37.33510882 -15.73046875 37.5703125 C-20.70147553 38.1849097 -24.3819137 40.12462498 -27.6796875 43.89453125 C-32.90614627 51.29140488 -33.02652061 58.0237027 -32.9765625 66.828125 C-32.97444008 68.24703537 -32.97444008 68.24703537 -32.97227478 69.6946106 C-32.96670109 72.70008579 -32.95415345 75.70548503 -32.94140625 78.7109375 C-32.93638785 80.75520725 -32.93182554 82.79947818 -32.92773438 84.84375 C-32.91674028 89.84117486 -32.89949382 94.83854333 -32.87890625 99.8359375 C-35.18890625 98.8459375 -37.49890625 97.8559375 -39.87890625 96.8359375 C-39.87890625 96.1759375 -39.87890625 95.5159375 -39.87890625 94.8359375 C-40.58917969 94.73667969 -41.29945313 94.63742187 -42.03125 94.53515625 C-48.15973497 93.03035679 -54.91610177 88.86835074 -58.50390625 83.5859375 C-60.39480076 79.80414848 -61.0101544 76.99744606 -61.0559082 72.82055664 C-61.06874344 71.79841568 -61.08157867 70.77627472 -61.09480286 69.72315979 C-61.10218979 68.616978 -61.10957672 67.5107962 -61.1171875 66.37109375 C-61.12525925 65.22740829 -61.13333099 64.08372284 -61.14164734 62.90538025 C-61.15549127 60.47852087 -61.16621204 58.05164199 -61.17407227 55.62475586 C-61.19119378 51.94411195 -61.23506779 48.26438779 -61.27929688 44.58398438 C-61.28943216 42.22136075 -61.29794564 39.8587295 -61.3046875 37.49609375 C-61.32219559 36.40813004 -61.33970367 35.32016632 -61.35774231 34.19923401 C-61.32432651 22.20031643 -57.58111146 11.13119843 -49.87890625 1.8359375 C-34.99347252 -11.28022915 -16.60810298 -8.85477532 0 0 Z " fill="#060606" transform="translate(177.87890625,231.1640625)"/>
<path d="M0 0 C2.34008789 1.15161133 2.34008789 1.15161133 4.72265625 2.58203125 C5.59083984 3.10216797 6.45902344 3.62230469 7.35351562 4.15820312 C8.24748047 4.70412109 9.14144531 5.25003906 10.0625 5.8125 C10.96033203 6.34681641 11.85816406 6.88113281 12.78320312 7.43164062 C19.19808423 11.30918586 24.30001849 14.71004992 27 22 C27.79834092 27.17186074 27.62900066 31.61431369 25.0625 36.25 C19.28184145 44.04426328 9.02887072 48.45330615 0.8125 53.25 C-0.24130859 53.87390625 -1.29511719 54.4978125 -2.38085938 55.140625 C-3.40373047 55.73875 -4.42660156 56.336875 -5.48046875 56.953125 C-6.39723389 57.49098633 -7.31399902 58.02884766 -8.25854492 58.58300781 C-13.97422695 61.53730637 -18.66099903 62.60371438 -25 62 C-29.36689877 59.47690293 -31.06163531 56.57563272 -33 52 C-34.80806979 37.03910877 -29.8172654 24.04407289 -20.859375 12.16015625 C-8.4469353 -2.27038991 -8.4469353 -2.27038991 0 0 Z " fill="#060707" transform="translate(345,242)"/>
<path d="M0 0 C10.36554797 3.40147515 19.58687046 13.78297319 24.71875 23.13671875 C28.81566259 32.29231914 32.09781012 41.85135534 31 52 C23.93085263 56.13620325 16.82286779 60.20719656 9.5625 64 C8.47066406 64.5775 7.37882812 65.155 6.25390625 65.75 C2.5609762 67.1686526 -0.07433612 67.34216623 -4 67 C-10.66395954 64.01270779 -13.96568419 60.05147372 -18 54 C-18.26069641 52.05389404 -18.26069641 52.05389404 -18.2746582 49.82324219 C-18.28419022 48.98517029 -18.29372223 48.14709839 -18.30354309 47.28363037 C-18.30263168 46.3805011 -18.30172028 45.47737183 -18.30078125 44.546875 C-18.30506638 43.61329163 -18.3093515 42.67970825 -18.31376648 41.71783447 C-18.31951148 39.74077159 -18.3200088 37.76368757 -18.31567383 35.78662109 C-18.31252649 32.77534384 -18.3359269 29.76506111 -18.36132812 26.75390625 C-18.3636025 24.8307304 -18.36430397 22.90755192 -18.36328125 20.984375 C-18.372491 20.08934265 -18.38170074 19.1943103 -18.39118958 18.27215576 C-18.3425783 11.63319994 -17.34712465 6.77387458 -12.9375 1.5625 C-8.55557911 -0.76830898 -4.85539016 -0.80073901 0 0 Z " fill="#070707" transform="translate(170,276)"/>
<path d="M0 0 C2.48631295 1.30685596 4.93494178 2.67142111 7.375 4.0625 C8.00809082 4.42085938 8.64118164 4.77921875 9.29345703 5.1484375 C31.04602575 17.56903862 31.04602575 17.56903862 35.375 24.0625 C36.11625025 28.5875742 35.80116529 32.1760762 33.8125 36.3125 C27.54473345 43.38382637 19.35561294 47.61619519 9.85473633 48.22363281 C6.96554104 48.269455 4.07702773 48.2977481 1.1875 48.3125 C0.19685547 48.333125 -0.79378906 48.35375 -1.81445312 48.375 C-11.91192385 48.42797034 -19.79578072 45.80411776 -28.625 41.0625 C-28.649727 36.70255933 -28.66787281 32.34265586 -28.67993164 27.98266602 C-28.68495903 26.49958587 -28.69178185 25.01651067 -28.70043945 23.53344727 C-28.71257482 21.40119199 -28.71824425 19.26900227 -28.72265625 17.13671875 C-28.72789307 15.85369873 -28.73312988 14.57067871 -28.73852539 13.2487793 C-28.625 10.0625 -28.625 10.0625 -27.625 7.0625 C-26.965 7.0625 -26.305 7.0625 -25.625 7.0625 C-25.398125 6.32 -25.17125 5.5775 -24.9375 4.8125 C-23.358845 1.50484191 -21.62885901 0.11391591 -18.625 -1.9375 C-11.47132601 -4.322058 -6.61853113 -3.24555377 0 0 Z " fill="#060706" transform="translate(224.625,122.9375)"/>
<path d="M0 0 C0.495 1.98 0.495 1.98 1 4 C3.31 4.33 5.62 4.66 8 5 C7.67 17.21 7.34 29.42 7 42 C6.67 42 6.34 42 6 42 C5.67 30.78 5.34 19.56 5 8 C2.03 9.98 -0.94 11.96 -4 14 C-5.95809863 15.15207459 -7.93154961 16.27885562 -9.92578125 17.3671875 C-10.96379883 17.93848389 -12.00181641 18.50978027 -13.07128906 19.09838867 C-14.14088867 19.68467041 -15.21048828 20.27095215 -16.3125 20.875 C-30.02642793 28.49395923 -42.27479552 36.57232152 -54 47 C-54.65613281 47.57105469 -55.31226563 48.14210937 -55.98828125 48.73046875 C-69.0009526 60.81144525 -79.39651834 78.70995418 -86 95 C-86.73863281 96.76537109 -86.73863281 96.76537109 -87.4921875 98.56640625 C-95.19606514 117.53939423 -101.29768342 142.27752113 -93 162 C-89.01959912 171.20753652 -85.49291731 177.80545514 -76 182 C-76 182.66 -76 183.32 -76 184 C-70.98391475 185.0176403 -66.21391694 185.11856434 -61.125 185.0625 C-59.949375 185.05573242 -59.949375 185.05573242 -58.75 185.04882812 C-56.83329986 185.03714093 -54.91663952 185.01920908 -53 185 C-52.67 185.99 -52.34 186.98 -52 188 C-51.01 188.33 -50.02 188.66 -49 189 C-51.97 189.99 -51.97 189.99 -55 191 C-54.01 191.66 -53.02 192.32 -52 193 C-64.75262003 193.70536404 -74.84399066 193.95439544 -86 187 C-86 186.34 -86 185.68 -86 185 C-86.86625 184.62875 -86.86625 184.62875 -87.75 184.25 C-96.79580294 179.22455392 -100.33164014 167.72620216 -103.06640625 158.33984375 C-104.1885397 153.74582833 -104.30346561 149.33648255 -104.25 144.625 C-104.24093628 143.32876709 -104.24093628 143.32876709 -104.23168945 142.00634766 C-104.04768002 129.77250836 -103.16184307 117.5841162 -99 106 C-98.68933594 105.01515625 -98.37867188 104.0303125 -98.05859375 103.015625 C-96.40265679 97.79455316 -94.64472043 92.83083719 -92.02734375 88.01171875 C-91.13339214 86.26120514 -90.35272967 84.4537431 -89.59375 82.640625 C-81.50358309 64.16014569 -66.65638175 45.53089334 -51 33 C-50.27167969 32.41089844 -49.54335938 31.82179687 -48.79296875 31.21484375 C-40.29303324 24.69599557 -30.89152508 19.69850337 -21.57666016 14.45751953 C-17.84017585 12.34393119 -14.13032945 10.18884242 -10.4375 8 C-9.83711914 7.65074463 -9.23673828 7.30148926 -8.61816406 6.94165039 C-5.29676211 4.96180601 -2.60778469 2.85644876 0 0 Z " fill="#E1E2E2" transform="translate(366,166)"/>
<path d="M0 0 C2.10827055 3.16240582 2.33817465 4.50657469 2.625 8.1875 C2.73714844 9.53908203 2.73714844 9.53908203 2.8515625 10.91796875 C2.90054688 11.60503906 2.94953125 12.29210937 3 13 C4.98 13.495 4.98 13.495 7 14 C7.33 9.71 7.66 5.42 8 1 C8.33 1 8.66 1 9 1 C10.0864983 14.17379191 8.6910803 23.12412528 1 34 C0.360625 34.91265625 -0.27875 35.8253125 -0.9375 36.765625 C-13.76610717 52.70116047 -35.47965582 61.12061595 -55 65 C-55.91910156 65.19722656 -56.83820313 65.39445312 -57.78515625 65.59765625 C-58.53667969 65.75105469 -59.28820312 65.90445313 -60.0625 66.0625 C-60.81660156 66.21847656 -61.57070312 66.37445313 -62.34765625 66.53515625 C-71.02483495 68.05589891 -79.58601816 68.24026929 -88.375 68.25 C-89.08765015 68.25133942 -89.80030029 68.25267883 -90.5345459 68.25405884 C-101.62857128 68.24953741 -112.17321951 67.51377733 -123 65 C-124.04929688 64.79503906 -125.09859375 64.59007812 -126.1796875 64.37890625 C-137.70322937 61.91830911 -148.71691072 56.73404466 -158.64453125 50.46484375 C-161.21219826 48.86803591 -163.83623999 47.43033139 -166.5 46 C-171.76688324 43.15994028 -176.89617338 40.12208049 -182 37 C-181.34 36.34 -180.68 35.68 -180 35 C-179.01 35 -178.02 35 -177 35 C-176.67 33.68 -176.34 32.36 -176 31 C-175.18917969 31.50789063 -174.37835938 32.01578125 -173.54296875 32.5390625 C-166.48009552 36.92971943 -159.40110541 41.19513641 -152 45 C-150.90558594 45.56589844 -149.81117188 46.13179687 -148.68359375 46.71484375 C-116.15744021 62.99355594 -78.29712061 64.34627394 -43.87109375 53.3125 C-25.59718613 47.21072874 -10.73015481 38.07414639 -0.921875 21.13842773 C0.11844925 18.72523915 0.23067414 17.06988619 0.1953125 14.453125 C0.18886719 13.60878906 0.18242187 12.76445312 0.17578125 11.89453125 C0.15902344 11.02183594 0.14226562 10.14914063 0.125 9.25 C0.11597656 8.36183594 0.10695313 7.47367188 0.09765625 6.55859375 C0.07414577 4.37211942 0.04128499 2.18619906 0 0 Z " fill="#DFE2E1" transform="translate(313,147)"/>
<path d="M0 0 C1.68698082 0.61344757 3.34827188 1.29713697 5 2 C5.64066406 2.16113281 6.28132812 2.32226562 6.94140625 2.48828125 C14.39267977 4.44773958 19.32268856 8.96840936 25 14 C25.75925781 14.6496875 26.51851562 15.299375 27.30078125 15.96875 C45.05869439 31.21848332 59.17708958 51.98587799 66.96484375 74.10546875 C67.99835696 77.10955627 67.99835696 77.10955627 69.49609375 80.36328125 C71.08712913 84.21069408 72.15825628 87.96287822 73.125 92 C73.37830078 93.00933594 73.37830078 93.00933594 73.63671875 94.0390625 C75.68753217 102.40379753 76.1387706 110.24116781 76.09765625 118.83984375 C76.0962413 119.96193741 76.09482635 121.08403107 76.09336853 122.24012756 C76.087794 125.80594608 76.07524616 129.37170062 76.0625 132.9375 C76.05748171 135.3626293 76.05291938 137.78775959 76.04882812 140.21289062 C76.03783291 146.14194872 76.0211202 152.07096979 76 158 C75.67 158 75.34 158 75 158 C74.67 145.79 74.34 133.58 74 121 C73.34 121 72.68 121 72 121 C71.67 123.31 71.34 125.62 71 128 C70.67 128 70.34 128 70 128 C69.67 121.73 69.34 115.46 69 109 C69 125.83 69 142.66 69 160 C68.67 160 68.34 160 68 160 C67.99191315 159.43418213 67.98382629 158.86836426 67.97549438 158.28540039 C67.88840178 152.31376353 67.78887474 146.34241963 67.68261719 140.37109375 C67.6446962 138.15239441 67.60978442 135.93364127 67.578125 133.71484375 C67.27557925 109.35551951 67.27557925 109.35551951 62.1875 85.625 C61.92541748 84.77848877 61.66333496 83.93197754 61.39331055 83.05981445 C59.47320426 77.0370559 57.05964833 71.5317555 54 66 C53.525625 64.845 53.05125 63.69 52.5625 62.5 C46.3313201 48.54215702 36.4506955 36.95637432 26 26 C25.28585938 25.23300781 24.57171875 24.46601563 23.8359375 23.67578125 C19.83970111 19.49645036 15.78683272 16.33880467 10.78515625 13.421875 C8.6299304 11.70523997 8.49033672 10.64237011 8 8 C6.26857146 6.84077872 6.26857146 6.84077872 4 6 C2 5 0 4 -2 3 C-2 2.34 -2 1.68 -2 1 C-1.34 0.67 -0.68 0.34 0 0 Z " fill="#E2E2E2" transform="translate(175,224)"/>
<path d="M0 0 C3.125 0.375 3.125 0.375 6 1 C6.33 1.99 6.66 2.98 7 4 C5.77734375 6.0234375 5.77734375 6.0234375 3.9375 8.375 C-4.54653833 19.95341704 -8.48584539 31.65836191 -7 46 C-5.49985248 49.80634446 -3.74015952 53.12992024 0 55 C12.19603038 56.06982723 21.97145311 48.24006653 31.93334961 42.03808594 C33.62522154 40.9886639 35.33394775 39.96656882 37.04296875 38.9453125 C38.04352295 38.33187988 39.04407715 37.71844727 40.07495117 37.08642578 C43 36 43 36 46.30981445 36.62841797 C49 38 49 38 50 41 C40.70573161 47.81445274 30.89209191 53.08139682 20.625 58.25 C19.60768799 58.76228149 19.60768799 58.76228149 18.56982422 59.28491211 C11.60658006 62.75444223 5.74587381 65.60625741 -2.08203125 63.41796875 C-8.0514603 60.91834167 -11.01906622 56.60085483 -14 51 C-17.48233691 40.55298926 -15.76416894 27.1846951 -11.63671875 17.203125 C-8.49339698 11.05151675 -4.90834662 4.90834662 0 0 Z " fill="#E3E4E4" transform="translate(320,248)"/>
<path d="M0 0 C35.88157895 17.76315789 35.88157895 17.76315789 42 30 C42.60919623 38.0045551 41.6353508 43.62155502 36.71484375 50.16796875 C28.03699001 59.43884211 15.55949241 62.82154394 3.25390625 63.30859375 C-12.11589082 63.58940612 -12.11589082 63.58940612 -16 61 C-12.7 61 -9.4 61 -6 61 C-8.31 60.34 -10.62 59.68 -13 59 C-13.33 57.68 -13.66 56.36 -14 55 C-13.28980713 54.98541748 -12.57961426 54.97083496 -11.84790039 54.95581055 C-8.58559222 54.88068375 -5.32423602 54.78423867 -2.0625 54.6875 C-0.38704102 54.65366211 -0.38704102 54.65366211 1.32226562 54.61914062 C11.63197207 54.28656945 20.46901254 51.9887532 29 46 C32.16230784 42.60630378 33.26115012 39.98034948 33.5625 35.4375 C33.38375013 32.09711186 33.08863032 31.12293883 31.0625 28.3125 C27.14274555 25.35268541 23.15337145 22.62123887 19 20 C18.01644531 19.36835938 17.03289062 18.73671875 16.01953125 18.0859375 C8.23659295 13.1753869 0.29352278 8.97890149 -8 5 C-7.01 4.34 -6.02 3.68 -5 3 C-5 3.66 -5 4.32 -5 5 C-3.35 4.67 -1.7 4.34 0 4 C0 2.68 0 1.36 0 0 Z " fill="#DBDBDB" transform="translate(226,116)"/>
<path d="M0 0 C1.19828159 0.73265099 2.39095227 1.47531803 3.5625 2.25 C2.5725 2.91 1.5825 3.57 0.5625 4.25 C-0.015 3.755 -0.5925 3.26 -1.1875 2.75 C-3.54150629 0.88019987 -3.54150629 0.88019987 -7.4375 1.25 C-7.4375 1.91 -7.4375 2.57 -7.4375 3.25 C-6.550625 3.476875 -5.66375 3.70375 -4.75 3.9375 C-1.00369468 5.42188513 0.89979434 7.27403485 3.5625 10.25 C-0.08279386 10.25 -1.68841216 9.17679296 -4.875 7.4375 C-15.21215739 2.18195003 -27.5184287 -1.35362111 -39.046875 2.01171875 C-41.28215856 2.96058912 -43.33886331 4.03185039 -45.4375 5.25 C-46.46875 5.765625 -47.5 6.28125 -48.5625 6.8125 C-55.43212932 12.63675095 -59.062146 20.72667094 -61.4375 29.25 C-64.4075 29.745 -64.4075 29.745 -67.4375 30.25 C-69.44059553 22.96601625 -66.25682359 17.50542891 -62.8125 11.25 C-48.99890518 -10.84496371 -21.34917173 -11.65405798 0 0 Z " fill="#E0E1E0" transform="translate(180.4375,223.75)"/>
<path d="M0 0 C0.495 1.98 0.495 1.98 1 4 C3.31 4.33 5.62 4.66 8 5 C7.67 17.21 7.34 29.42 7 42 C6.67 42 6.34 42 6 42 C5.67 30.78 5.34 19.56 5 8 C2.03 9.98 -0.94 11.96 -4 14 C-5.95809863 15.15207459 -7.93154961 16.27885562 -9.92578125 17.3671875 C-10.96420166 17.93888672 -12.00262207 18.51058594 -13.07250977 19.09960938 C-14.14170654 19.68548828 -15.21090332 20.27136719 -16.3125 20.875 C-27.78718489 27.23323807 -38.62657489 33.9453405 -49 42 C-49 40.35 -49 38.7 -49 37 C-48.34 37 -47.68 37 -47 37 C-47 35.68 -47 34.36 -47 33 C-50.56937243 35.51407115 -50.56937243 35.51407115 -52.9375 39.0625 C-54.57322847 42.04529898 -56.92286013 42.78196547 -60 44 C-60.66 43.67 -61.32 43.34 -62 43 C-50.37417016 31.95346408 -38.26229307 23.89975286 -24.3046875 16.0078125 C-19.65785238 13.37901237 -15.03116983 10.72067459 -10.4375 8 C-9.83719971 7.6508252 -9.23689941 7.30165039 -8.6184082 6.94189453 C-5.29700437 4.96185463 -2.60786572 2.85653752 0 0 Z " fill="#E3E4E3" transform="translate(366,166)"/>
<path d="M0 0 C4.977152 2.39326884 9.85827088 4.8513528 14.5625 7.75 C27.32172748 15.46534537 39.48533827 21.38495909 54 25 C53.34 26.65 52.68 28.3 52 30 C50.02 30 48.04 30 46 30 C46.66 30.66 47.32 31.32 48 32 C43.03150397 31.40594069 38.78129262 29.84489013 34.25 27.8125 C33.54335205 27.49933838 32.8367041 27.18617676 32.10864258 26.86352539 C27.31688999 24.69850105 22.8049262 22.27463514 18.35546875 19.46484375 C15.78780174 17.86803591 13.16376001 16.43033139 10.5 15 C5.23311676 12.15994028 0.10382662 9.12208049 -5 6 C-4.34 5.34 -3.68 4.68 -3 4 C-2.01 4 -1.02 4 0 4 C0 2.68 0 1.36 0 0 Z " fill="#DFDFDF" transform="translate(136,178)"/>
<path d="M0 0 C9.50409702 4.70499852 18.81307667 9.73975935 27.875 15.25 C28.57077148 15.66185547 29.26654297 16.07371094 29.98339844 16.49804688 C34.83389508 19.50131474 34.83389508 19.50131474 35.65673828 21.97167969 C35.77001465 22.64102539 35.88329102 23.31037109 36 24 C36.185625 24.9075 36.37125 25.815 36.5625 26.75 C37.896 36.656 37.896 36.656 35 41 C34.91363281 40.33613281 34.82726562 39.67226562 34.73828125 38.98828125 C33.79880962 33.08426232 32.92595713 29.77307355 28 26 C25.06637016 23.88705157 22.05710389 21.92937223 19 20 C18.01644531 19.36835938 17.03289062 18.73671875 16.01953125 18.0859375 C8.23659295 13.1753869 0.29352278 8.97890149 -8 5 C-7.01 4.34 -6.02 3.68 -5 3 C-5 3.66 -5 4.32 -5 5 C-3.35 4.67 -1.7 4.34 0 4 C0 2.68 0 1.36 0 0 Z " fill="#E0E1E0" transform="translate(226,116)"/>
<path d="M0 0 C2 1.25 2 1.25 4 3 C4 4.32 4 5.64 4 7 C4.33 5.68 4.66 4.36 5 3 C5.66 3 6.32 3 7 3 C10.68032808 12.12081307 11.14439099 20.06571807 11.09765625 29.83984375 C11.0962413 30.96193741 11.09482635 32.08403107 11.09336853 33.24012756 C11.087794 36.80594608 11.07524616 40.37170062 11.0625 43.9375 C11.05748171 46.3626293 11.05291938 48.78775959 11.04882812 51.21289062 C11.03783291 57.14194872 11.0211202 63.07096979 11 69 C10.67 69 10.34 69 10 69 C9.67 56.79 9.34 44.58 9 32 C8.34 32 7.68 32 7 32 C6.67 34.31 6.34 36.62 6 39 C5.67 39 5.34 39 5 39 C4.67 32.73 4.34 26.46 4 20 C4 36.83 4 53.66 4 71 C3.67 71 3.34 71 3 71 C2.99191315 70.43418213 2.98382629 69.86836426 2.97549438 69.28540039 C2.88840178 63.31376353 2.78887474 57.34241963 2.68261719 51.37109375 C2.6446962 49.15239441 2.60978442 46.93364127 2.578125 44.71484375 C2.41103653 33.14396712 2.16508878 21.75750152 0.41552734 10.3046875 C-0.02052066 6.83679924 -0.0682968 3.49146566 0 0 Z " fill="#BDBEBD" transform="translate(240,313)"/>
<path d="M0 0 C2.82114493 5.20826756 5.04689379 10.52598622 7.125 16.0625 C7.37846191 16.73474609 7.63192383 17.40699219 7.89306641 18.09960938 C12.63595654 30.91010866 12.63595654 30.91010866 11 35 C11 34.01 11 33.02 11 32 C10.34 32 9.68 32 9 32 C8.505 34.475 8.505 34.475 8 37 C6.79371992 34.66785852 5.8345262 32.50357861 5 30 C4.34 30.66 3.68 31.32 3 32 C2.69707031 30.96101563 2.39414063 29.92203125 2.08203125 28.8515625 C-0.10941665 21.51060856 -2.25911504 14.70879951 -6.27734375 8.11328125 C-7 6 -7 6 -6.31640625 3.29296875 C-4.65548619 0.39991215 -3.29613807 0 0 0 Z " fill="#DEE0DF" transform="translate(236,284)"/>
<path d="M0 0 C2.10827055 3.16240582 2.33817465 4.50657469 2.625 8.1875 C2.69976562 9.08855469 2.77453125 9.98960937 2.8515625 10.91796875 C2.90054687 11.60503906 2.94953125 12.29210937 3 13 C4.32 13.33 5.64 13.66 7 14 C7.33 9.71 7.66 5.42 8 1 C8.33 1 8.66 1 9 1 C10.21190899 15.69439653 7.94345074 25.68857396 -1.53515625 37.15234375 C-3.62552875 39.51436529 -5.75214927 41.78857278 -8 44 C-8.495 42.515 -8.495 42.515 -9 41 C-8.67 40.34 -8.34 39.68 -8 39 C-9.32 38.67 -10.64 38.34 -12 38 C-10.30410018 34.35785324 -8.10809891 31.43567532 -5.6328125 28.29296875 C-0.76147125 21.45211393 0.58056619 17.42201033 0.25 9.0625 C0.23195313 8.18787109 0.21390625 7.31324219 0.1953125 6.41210938 C0.14858353 4.27425892 0.07685441 2.13697955 0 0 Z " fill="#DFE0DF" transform="translate(313,147)"/>
<path d="M0 0 C-0.99 0.495 -0.99 0.495 -2 1 C-1.67 2.32 -1.34 3.64 -1 5 C-1.66 5 -2.32 5 -3 5 C-3.2165625 6.36125 -3.2165625 6.36125 -3.4375 7.75 C-4 11 -4 11 -4.52232361 12.93951416 C-5.02016422 15.08697959 -5.15774844 17.01578474 -5.20532227 19.21777344 C-5.22526749 20.03832214 -5.24521271 20.85887085 -5.26576233 21.70428467 C-5.29083107 23.01855438 -5.29083107 23.01855438 -5.31640625 24.359375 C-5.33718735 25.26375305 -5.35796844 26.1681311 -5.37937927 27.09991455 C-5.4446594 29.98320055 -5.50365952 32.8665761 -5.5625 35.75 C-5.60570571 37.70704044 -5.64932065 39.66407188 -5.69335938 41.62109375 C-5.80031872 46.4139712 -5.90164673 51.20693854 -6 56 C-6.33 56 -6.66 56 -7 56 C-7.33 44.78 -7.66 33.56 -8 22 C-8.66 22 -9.32 22 -10 22 C-10.33 22.66 -10.66 23.32 -11 24 C-11.33 22.35 -11.66 20.7 -12 19 C-12.33 31.21 -12.66 43.42 -13 56 C-13.33 56 -13.66 56 -14 56 C-14.04969113 50.44988284 -14.08585685 44.89989718 -14.10986328 39.34960938 C-14.11987847 37.46416974 -14.13349452 35.57874547 -14.15087891 33.69335938 C-14.17532532 30.97261751 -14.18652816 28.25208223 -14.1953125 25.53125 C-14.20563507 24.69758911 -14.21595764 23.86392822 -14.22659302 23.00500488 C-14.22792513 15.94837821 -13.57954099 9.25257968 -9 3.5625 C-8.484375 2.90378906 -7.96875 2.24507813 -7.4375 1.56640625 C-4.85577236 -1.24683502 -3.47955626 -1.04386688 0 0 Z " fill="#C7C7C7" transform="translate(158,272)"/>
<path d="M0 0 C2.36666638 1.52175286 4.01825972 2.96469917 6 5 C6 5.66 6 6.32 6 7 C5.01 7 4.02 7 3 7 C3.33 8.32 3.66 9.64 4 11 C0.78847098 10.37353582 -1.39234311 9.20717264 -4.125 7.4375 C-9.08849484 4.61174799 -13.37884991 4.05987734 -19 5 C-22.03465702 6.31227434 -22.03465702 6.31227434 -24 8 C-24 7.01 -24 6.02 -24 5 C-23.34 5 -22.68 5 -22 5 C-22.185625 4.360625 -22.37125 3.72125 -22.5625 3.0625 C-22.7790625 2.0415625 -22.7790625 2.0415625 -23 1 C-22.67 0.67 -22.34 0.34 -22 0 C-22.66 -0.66 -23.32 -1.32 -24 -2 C-15.70145602 -6.14927199 -7.95298389 -3.76465447 0 0 Z " fill="#E5E5E5" transform="translate(179,272)"/>
<path d="M0 0 C1.0725 0.226875 2.145 0.45375 3.25 0.6875 C-0.09332976 7.18066801 -3.7604365 10.60563013 -10.0625 14.1875 C-10.80306641 14.62835938 -11.54363281 15.06921875 -12.30664062 15.5234375 C-14.11139063 16.59464396 -15.92938679 17.64348208 -17.75 18.6875 C-18.08 18.0275 -18.41 17.3675 -18.75 16.6875 C-19.86375 17.0278125 -19.86375 17.0278125 -21 17.375 C-23.75 17.6875 -23.75 17.6875 -26.0625 16.25 C-26.8978125 15.4765625 -26.8978125 15.4765625 -27.75 14.6875 C-28.08 15.3475 -28.41 16.0075 -28.75 16.6875 C-29.41 16.0275 -30.07 15.3675 -30.75 14.6875 C-30.01136719 14.40777344 -29.27273438 14.12804687 -28.51171875 13.83984375 C-20.25697801 10.57780516 -12.52895605 6.66696904 -5.671875 0.95703125 C-3.75 -0.3125 -3.75 -0.3125 0 0 Z " fill="#DEDEDE" transform="translate(303.75,184.3125)"/>
<path d="M0 0 C2.55130763 0.61231383 5.04577978 1.31189923 7.5625 2.0625 C10.88854054 3.1315587 10.88854054 3.1315587 14 3 C14.99 3.33 15.98 3.66 17 4 C17.33 5.98 17.66 7.96 18 10 C20.88464623 10.16483693 22.6835467 10.15395025 25.3125 8.875 C29.33103164 7.56664086 31.99898886 8.77935253 36 10 C35.34 10.33 34.68 10.66 34 11 C34 11.66 34 12.32 34 13 C34.66 13.33 35.32 13.66 36 14 C36 14.33 36 14.66 36 15 C42.6 15.66 49.2 16.32 56 17 C56 17.33 56 17.66 56 18 C37.97383635 18.3177972 25.66614392 17.10902791 10 8 C8.42605469 7.11441406 8.42605469 7.11441406 6.8203125 6.2109375 C1.76348099 3.30290125 1.76348099 3.30290125 0 2 C0 1.34 0 0.68 0 0 Z " fill="#DEDFDF" transform="translate(178,160)"/>
<path d="M0 0 C2 0 4 0 6 0 C6.03738281 1.0621875 6.07476562 2.124375 6.11328125 3.21875 C6.44444352 10.79073045 7.0206658 16.95793734 10 24 C9.5859375 26.203125 9.5859375 26.203125 9 28 C9.66 28.33 10.32 28.66 11 29 C8.8125 29.375 8.8125 29.375 6 29 C1.44904538 24.44904538 -0.84422909 20.64810548 -1.23046875 14.08203125 C-1.22651895 12.65878758 -1.21196854 11.23553881 -1.1875 9.8125 C-1.1865332 8.72678711 -1.1865332 8.72678711 -1.18554688 7.61914062 C-1.14086152 2.28172304 -1.14086152 2.28172304 0 0 Z " fill="#E8E8E8" transform="translate(306,278)"/>
<path d="M0 0 C-1.875 6.875 -1.875 6.875 -3 8 C-2.34 8.33 -1.68 8.66 -1 9 C-3 11 -3 11 -5.625 11.125 C-6.40875 11.08375 -7.1925 11.0425 -8 11 C-8.33 12.32 -8.66 13.64 -9 15 C-12.33333333 13.33333333 -15.66666667 11.66666667 -19 10 C-19 9.34 -19 8.68 -19 8 C-16.40251918 6.4666195 -13.79812104 4.94820332 -11.1875 3.4375 C-10.44951172 2.99986328 -9.71152344 2.56222656 -8.95117188 2.11132812 C-8.23896484 1.70205078 -7.52675781 1.29277344 -6.79296875 0.87109375 C-6.1383667 0.48880615 -5.48376465 0.10651855 -4.80932617 -0.28735352 C-3 -1 -3 -1 0 0 Z " fill="#0A0C0B" transform="translate(241,104)"/>
<path d="M0 0 C0.66 0.495 1.32 0.99 2 1.5 C7.17542085 4.08771042 12.47614346 3.38096413 18 2 C17.67 2.99 17.34 3.98 17 5 C16.34 5 15.68 5 15 5 C15 6.98 15 8.96 15 11 C11.77544247 12.61227876 8.496251 12.46900928 5 12 C2.18098264 10.90583902 -0.40449079 9.5462608 -3 8 C-2.01 7.34 -1.02 6.68 0 6 C0.2502157 2.91634129 0.2502157 2.91634129 0 0 Z " fill="#E2E2E2" transform="translate(315,300)"/>
<path d="M0 0 C8.22890398 0.88166828 8.22890398 0.88166828 12.10546875 1.4765625 C26.3155131 3.55305753 40.66415955 3.65560383 55 4 C55 4.33 55 4.66 55 5 C50.103992 6.27458059 45.2704068 6.1503739 40.25 6.125 C39.32638672 6.12306641 38.40277344 6.12113281 37.45117188 6.11914062 C30.10276209 6.07368654 22.79760478 5.73437549 15.46875 5.21875 C12.11605922 4.95129404 12.11605922 4.95129404 9.21875 5.09375 C7 5 7 5 4 3 C3.67 3.66 3.34 4.32 3 5 C-1.36886712 6.19150921 -3.95634201 6.021829 -8 4 C-8 3.67 -8 3.34 -8 3 C-5.03 3.33 -2.06 3.66 1 4 C0.67 2.68 0.34 1.36 0 0 Z " fill="#EDEFEE" transform="translate(187,204)"/>
<path d="M0 0 C0 1.32 0 2.64 0 4 C1.32 3.67 2.64 3.34 4 3 C-1.91358559 9.25150477 -6.69713572 11.46243254 -15 13 C-15.66 11.68 -16.32 10.36 -17 9 C-14 7 -14 7 -12 7 C-11.67 6.34 -11.34 5.68 -11 5 C-11.66 4.67 -12.32 4.34 -13 4 C-11.2097939 3.32942113 -9.41778511 2.6636531 -7.625 2 C-6.62726563 1.62875 -5.62953125 1.2575 -4.6015625 0.875 C-2 0 -2 0 0 0 Z " fill="#DFE1E0" transform="translate(256,164)"/>
<path d="M0 0 C0.66 0.66 1.32 1.32 2 2 C2.99 2 3.98 2 5 2 C5.33 1.34 5.66 0.68 6 0 C5.92894547 0.65470779 5.85789093 1.30941559 5.78468323 1.98396301 C5.07632299 9.01545779 4.86718474 15.94818767 4.90234375 23.01171875 C4.9037587 24.10595657 4.90517365 25.2001944 4.90663147 26.32759094 C4.91217469 29.78092322 4.92471621 33.23418772 4.9375 36.6875 C4.94252235 39.04622301 4.94708396 41.40494706 4.95117188 43.76367188 C4.96212544 49.50913723 4.97880587 55.25456377 5 61 C4.34 61 3.68 61 3 61 C2.99413376 60.3927861 2.98826752 59.7855722 2.98222351 59.15995789 C2.91837272 52.84957425 2.83397497 46.53970455 2.73754883 40.22973633 C2.7042598 37.87368539 2.67624039 35.51755394 2.65356445 33.16137695 C2.62009197 29.77780793 2.56777908 26.39497946 2.51171875 23.01171875 C2.50213387 21.42722176 2.50213387 21.42722176 2.49235535 19.81071472 C2.47256119 18.82992447 2.45276703 17.84913422 2.43237305 16.83862305 C2.42126999 15.97480515 2.41016693 15.11098724 2.39872742 14.22099304 C1.91744728 11.54016451 0.97467761 10.78935723 -1 9 C-1.07421875 6.73828125 -1.07421875 6.73828125 -0.6875 4.3125 C-0.56761719 3.50425781 -0.44773437 2.69601563 -0.32421875 1.86328125 C-0.21722656 1.24839844 -0.11023438 0.63351563 0 0 Z " fill="#F2F3F2" transform="translate(112,251)"/>
<path d="M0 0 C5.28 1.32 10.56 2.64 16 4 C15.34 5.65 14.68 7.3 14 9 C12.02 9 10.04 9 8 9 C8.66 9.66 9.32 10.32 10 11 C6.0870104 10.45400145 2.49685546 9.89829296 -1 8 C-1.9375 6.125 -1.9375 6.125 -2 4 C-1.34 2.68 -0.68 1.36 0 0 Z " fill="#D6D6D6" transform="translate(174,199)"/>
<path d="M0 0 C0.7425 0.495 0.7425 0.495 1.5 1 C0.51 1 -0.48 1 -1.5 1 C-1.83 2.98 -2.16 4.96 -2.5 7 C-3.18707031 7.12117188 -3.87414062 7.24234375 -4.58203125 7.3671875 C-5.48308594 7.53476562 -6.38414062 7.70234375 -7.3125 7.875 C-8.20582031 8.03742188 -9.09914062 8.19984375 -10.01953125 8.3671875 C-12.72727846 8.91188449 -12.72727846 8.91188449 -15.5 11 C-15.5 10.01 -15.5 9.02 -15.5 8 C-14.84 8 -14.18 8 -13.5 8 C-13.685625 7.360625 -13.87125 6.72125 -14.0625 6.0625 C-14.2790625 5.0415625 -14.2790625 5.0415625 -14.5 4 C-14.17 3.67 -13.84 3.34 -13.5 3 C-14.16 2.34 -14.82 1.68 -15.5 1 C-10.50367864 -1.49816068 -5.28145731 -2.11258292 0 0 Z " fill="#D8D9D9" transform="translate(170.5,269)"/>
<path d="M0 0 C3.95788424 1.45778425 7.44334866 3.34040527 11.0625 5.5 C14.33140041 7.4456759 17.5688524 9.35436566 21 11 C20.814375 11.78375 20.62875 12.5675 20.4375 13.375 C19.74037734 15.97089775 19.74037734 15.97089775 21 18 C20.0625 20.125 20.0625 20.125 19 22 C17.11502175 19.66262697 15.24076316 17.32609694 13.45703125 14.91015625 C9.86552495 10.10230457 6.1485904 6.11990712 1.50390625 2.3125 C1.00761719 1.879375 0.51132812 1.44625 0 1 C0 0.67 0 0.34 0 0 Z " fill="#1A1C1B" transform="translate(300,118)"/>
<path d="M0 0 C0.66 0.99 1.32 1.98 2 3 C1.67 3.99 1.34 4.98 1 6 C1.11049379 7.62978339 1.28346261 9.25589088 1.5 10.875 C1.91838167 14.49744386 2.06354578 17.45484739 1 21 C0.4225 20.814375 -0.155 20.62875 -0.75 20.4375 C-3.20692525 19.95976454 -4.64397534 20.24270636 -7 21 C-6.55340986 13.11024081 -3.49359021 6.98718042 0 0 Z " fill="#D7D8D7" transform="translate(312,259)"/>
<path d="M0 0 C0.33 1.32 0.66 2.64 1 4 C3.31 4.33 5.62 4.66 8 5 C7.67 17.21 7.34 29.42 7 42 C6.67 42 6.34 42 6 42 C5.67 30.78 5.34 19.56 5 8 C4.01 8.66 3.02 9.32 2 10 C0.25 9.6875 0.25 9.6875 -2 9 C-4.33094534 8.6503582 -6.66404762 8.31445513 -9 8 C-7.23205273 6.04595302 -5.66195132 4.79878054 -3.375 3.4375 C-0.88809625 2.22087094 -0.88809625 2.22087094 0 0 Z " fill="#B1B3B2" transform="translate(366,166)"/>
<path d="M0 0 C2.97 0.495 2.97 0.495 6 1 C5.53328373 6.41390868 4.75702189 10.20517932 2 15 C1.01 15 0.02 15 -1 15 C-2.88453599 12.22862355 -2.99438022 10.92132313 -2.75 7.5 C-2.1281105 4.59784899 -1.50963012 2.5160502 0 0 Z " fill="#E6E7E7" transform="translate(271,263)"/>
<path d="M0 0 C0.33 2.64 0.66 5.28 1 8 C-0.98 8.99 -2.96 9.98 -5 11 C-5 10.34 -5 9.68 -5 9 C-6.11375 9.3403125 -6.11375 9.3403125 -7.25 9.6875 C-10 10 -10 10 -12.3125 8.5625 C-13.1478125 7.7890625 -13.1478125 7.7890625 -14 7 C-14.33 7.66 -14.66 8.32 -15 9 C-15.66 8.34 -16.32 7.68 -17 7 C-16.16855469 6.66226563 -15.33710938 6.32453125 -14.48046875 5.9765625 C-13.39378906 5.53054687 -12.30710937 5.08453125 -11.1875 4.625 C-10.10855469 4.18414062 -9.02960938 3.74328125 -7.91796875 3.2890625 C-0.47272727 0 -0.47272727 0 0 0 Z " fill="#DCDDDD" transform="translate(290,192)"/>
<path d="M0 0 C1.1055189 0.93590504 2.20935453 1.87379858 3.3125 2.8125 C3.92738281 3.33457031 4.54226562 3.85664063 5.17578125 4.39453125 C8.51952278 7.3373102 8.51952278 7.3373102 10 9 C10 9.66 10 10.32 10 11 C6.94152152 11.54372951 4.11227195 12 1 12 C-1.75 9.25 -1.75 9.25 -4 6 C-3.8125 3.625 -3.8125 3.625 -3 2 C-2.01 2 -1.02 2 0 2 C0 1.34 0 0.68 0 0 Z " fill="#DBDBDB" transform="translate(185,277)"/>
<path d="M0 0 C2.78918149 1.10540926 2.78918149 1.10540926 5 1 C5 1.66 5 2.32 5 3 C3.08959948 3.8680908 1.17139263 4.71901783 -0.75 5.5625 C-1.81734375 6.03816406 -2.8846875 6.51382813 -3.984375 7.00390625 C-6.9591001 7.98649032 -8.2172485 8.39787751 -11 7 C-11.33 6.01 -11.66 5.02 -12 4 C-12.99 3.67 -13.98 3.34 -15 3 C-14.113125 2.71125 -13.22625 2.4225 -12.3125 2.125 C-9.07654738 1.0858973 -9.07654738 1.0858973 -6.375 -0.1875 C-3.68279085 -1.10851892 -2.62660357 -0.96308798 0 0 Z " fill="#E8EAE9" transform="translate(280,200)"/>
<path d="M0 0 C2.10827055 3.16240582 2.33817465 4.50657469 2.625 8.1875 C2.69976562 9.08855469 2.77453125 9.98960937 2.8515625 10.91796875 C2.90054687 11.60503906 2.94953125 12.29210937 3 13 C4.32 13.33 5.64 13.66 7 14 C7.33 9.71 7.66 5.42 8 1 C8.33 1 8.66 1 9 1 C9.02689449 3.95839355 9.04678741 6.91654427 9.0625 9.875 C9.07087891 10.71675781 9.07925781 11.55851563 9.08789062 12.42578125 C9.09111328 13.23144531 9.09433594 14.03710938 9.09765625 14.8671875 C9.10289307 15.61081543 9.10812988 16.35444336 9.11352539 17.12060547 C9 19 9 19 8 21 C5.69 21.33 3.38 21.66 1 22 C0.67 14.74 0.34 7.48 0 0 Z " fill="#BBBDBC" transform="translate(313,147)"/>
<path d="M0 0 C4.00259586 4.69269859 6.95273768 8.53738437 7.07421875 14.8671875 C6.9627599 16.20469367 6.83358624 17.54083186 6.6875 18.875 C6.62626953 19.56335938 6.56503906 20.25171875 6.50195312 20.9609375 C6.35018142 22.64210098 6.17726382 24.32133301 6 26 C5.67 26 5.34 26 5 26 C4.87625 24.865625 4.7525 23.73125 4.625 22.5625 C4.41875 21.386875 4.2125 20.21125 4 19 C3.34 18.67 2.68 18.34 2 18 C1.18690098 14.08234111 0.62446732 10.82092412 2 7 C1.34 6.67 0.68 6.34 0 6 C-0.6875 4.0625 -0.6875 4.0625 -1 2 C-0.67 1.34 -0.34 0.68 0 0 Z " fill="#D9DCDB" transform="translate(314,133)"/>
<path d="M0 0 C0.33 0.66 0.66 1.32 1 2 C2.32 1.67 3.64 1.34 5 1 C5.99 2.32 6.98 3.64 8 5 C6.02 7.97 6.02 7.97 4 11 C2.68103535 10.07161713 1.37001311 9.13194268 0.0625 8.1875 C-0.66839844 7.66542969 -1.39929688 7.14335938 -2.15234375 6.60546875 C-4 5 -4 5 -5 2 C-3.35 1.34 -1.7 0.68 0 0 Z " fill="#D9DADA" transform="translate(299,120)"/>
<path d="M0 0 C4.55015893 1.51671964 6.50057264 5.16891053 9 9 C8.67 9.66 8.34 10.32 8 11 C6.35 10.01 4.7 9.02 3 8 C2.67 9.65 2.34 11.3 2 13 C-0.0625 10.75 -0.0625 10.75 -2 8 C-1.625 5.8125 -1.625 5.8125 -1 4 C-1.66 3.34 -2.32 2.68 -3 2 C-2.01 1.34 -1.02 0.68 0 0 Z " fill="#DADBDA" transform="translate(218,259)"/>
<path d="M0 0 C1.0546875 1.859375 1.0546875 1.859375 2 4 C1.125 6.25 1.125 6.25 0 8 C-0.66 8 -1.32 8 -2 8 C-1.67 8.99 -1.34 9.98 -1 11 C-4.3 10.01 -7.6 9.02 -11 8 C-10 5 -10 5 -7.71484375 3.61328125 C-6.79832031 3.18402344 -5.88179688 2.75476563 -4.9375 2.3125 C-4.01839844 1.87550781 -3.09929687 1.43851563 -2.15234375 0.98828125 C-1.08693359 0.49908203 -1.08693359 0.49908203 0 0 Z " fill="#1D1E1E" transform="translate(133,164)"/>
<path d="M0 0 C0.33 0.99 0.66 1.98 1 3 C1.99 3.33 2.98 3.66 4 4 C4.66 3.01 5.32 2.02 6 1 C6 5.95 6 10.9 6 16 C5.67 15.01 5.34 14.02 5 13 C4.01 13 3.02 13 2 13 C1.34 14.32 0.68 15.64 0 17 C0 11.39 0 5.78 0 0 Z " fill="#EBEEED" transform="translate(315,148)"/>
<path d="M0 0 C1.65 0 3.3 0 5 0 C7.42857143 7.42857143 7.42857143 7.42857143 6 11 C6 10.01 6 9.02 6 8 C5.34 8 4.68 8 4 8 C3.67 9.65 3.34 11.3 3 13 C1.79371992 10.66785852 0.8345262 8.50357861 0 6 C-0.66 6.66 -1.32 7.32 -2 8 C-1.125 2.25 -1.125 2.25 0 0 Z " fill="#DFDFDF" transform="translate(241,308)"/>
<path d="M0 0 C3.71599191 -0.20086443 4.77208445 -0.1519437 8 2 C7.01 4.64 6.02 7.28 5 10 C4.67 9.34 4.34 8.68 4 8 C1.69 8 -0.62 8 -3 8 C-1.125 2.25 -1.125 2.25 0 0 Z " fill="#E1E3E2" transform="translate(273,256)"/>
<path d="M0 0 C5 6.12903226 5 6.12903226 5 10 C5.33 10.639375 5.66 11.27875 6 11.9375 C7 14 7 14 7 18 C6.34 18 5.68 18 5 18 C5 17.34 5 16.68 5 16 C4.4225 15.773125 3.845 15.54625 3.25 15.3125 C0.4336339 13.66961977 -1.08077114 11.60466773 -3 9 C-1.35 8.67 0.3 8.34 2 8 C2 7.01 2 6.02 2 5 C1.34 5 0.68 5 0 5 C0 3.35 0 1.7 0 0 Z " fill="#D5D5D5" transform="translate(275,335)"/>
<path d="M0 0 C0.33 0 0.66 0 1 0 C1 2.31 1 4.62 1 7 C1.66 7 2.32 7 3 7 C3.33 6.01 3.66 5.02 4 4 C4.99 4.33 5.98 4.66 7 5 C5.87895467 6.31587941 4.75303035 7.62760353 3.625 8.9375 C2.68527344 10.03384766 2.68527344 10.03384766 1.7265625 11.15234375 C0 13 0 13 -2 14 C-1.7525 13.0409375 -1.7525 13.0409375 -1.5 12.0625 C-0.96073333 10.19173179 -0.96073333 10.19173179 -1 9 C-2.32 8.67 -3.64 8.34 -5 8 C-3.6299034 5.0490227 -2.06764583 2.51713405 0 0 Z " fill="#DBDBDB" transform="translate(306,177)"/>
<path d="M0 0 C2.71994995 2.34904769 4.06552903 4.51697183 5 8 C4.1875 9.875 4.1875 9.875 3 12 C2.61250787 14.32495277 2.27017161 16.65851268 2 19 C2.66 19.33 3.32 19.66 4 20 C3.34 20.99 2.68 21.98 2 23 C0.95454771 18.34113981 -0.06358098 13.6820951 -1 9 C-1.226875 8.34 -1.45375 7.68 -1.6875 7 C-2.12029274 4.23012648 -1.17531853 2.48890983 0 0 Z " fill="#D6D7D6" transform="translate(197,291)"/>
<path d="M0 0 C3.59412911 1.33496224 6.92170156 2.69127617 10 5 C10.8125 7.6875 10.8125 7.6875 11 10 C10.34 10 9.68 10 9 10 C9 10.66 9 11.32 9 12 C8.34 11.67 7.68 11.34 7 11 C7 10.01 7 9.02 7 8 C5.35 7.67 3.7 7.34 2 7 C2 6.01 2 5.02 2 4 C1.34 3.67 0.68 3.34 0 3 C0 2.01 0 1.02 0 0 Z " fill="#E6E6E6" transform="translate(145,184)"/>
<path d="M0 0 C0.99 0.33 1.98 0.66 3 1 C2.44010697 4.99012371 1.24330232 7.5255052 -1.0625 10.8125 C-1.88427734 11.99779297 -1.88427734 11.99779297 -2.72265625 13.20703125 C-3.35494141 14.09455078 -3.35494141 14.09455078 -4 15 C-4.99 14.67 -5.98 14.34 -7 14 C-6.5361167 9.82505033 -6.1386402 7.77648941 -3 5 C-1.96642853 3.35394174 -0.95939668 1.69036558 0 0 Z " fill="#101010" transform="translate(288,222)"/>
<path d="M0 0 C0.33 0.66 0.66 1.32 1 2 C3.64 1.67 6.28 1.34 9 1 C8 4 8 4 6.15234375 5.16796875 C5.42144531 5.50441406 4.69054687 5.84085938 3.9375 6.1875 C3.20402344 6.53167969 2.47054688 6.87585938 1.71484375 7.23046875 C1.14894531 7.48441406 0.58304687 7.73835937 0 8 C-1.65 6.68 -3.3 5.36 -5 4 C-4.67 3.01 -4.34 2.02 -4 1 C-1.9375 0.3125 -1.9375 0.3125 0 0 Z " fill="#E4E4E4" transform="translate(359,173)"/>
<path d="M0 0 C1.32 0.99 2.64 1.98 4 3 C3.5317879 7.77576339 2.75668002 11.04476345 0 15 C-2.10531329 11.57886591 -2.32490511 8.98008754 -2 5 C-1 2.125 -1 2.125 0 0 Z " fill="#E5E7E6" transform="translate(314,258)"/>
<path d="M0 0 C1.32 0 2.64 0 4 0 C4.81703122 2.34180923 5.16013611 3.56294344 4.29296875 5.9296875 C3.92816406 6.57164062 3.56335938 7.21359375 3.1875 7.875 C1.40108609 11.17584784 0.08237599 14.39208003 -1 18 C-1.33 18 -1.66 18 -2 18 C-2.20557717 12.22099726 -2.18204541 7.45511351 0 2 C0 1.34 0 0.68 0 0 Z " fill="#0C0E0D" transform="translate(113,232)"/>
<path d="M0 0 C0.33 0 0.66 0 1 0 C1.02505615 1.03930664 1.0501123 2.07861328 1.07592773 3.14941406 C1.17020926 7.01102703 1.27037908 10.87246883 1.37231445 14.73388672 C1.41558489 16.40409334 1.45726549 18.07434194 1.49731445 19.74462891 C1.55520851 22.14758955 1.6188474 24.55034041 1.68359375 26.953125 C1.70030624 27.69806213 1.71701874 28.44299927 1.73423767 29.21051025 C1.81343884 31.99184896 1.90166514 34.60896948 2.58227539 37.31542969 C3 39 3 39 2 42 C1.34 42 0.68 42 0 42 C0 28.14 0 14.28 0 0 Z " fill="#D6D8D7" transform="translate(109,216)"/>
<path d="M0 0 C0.721875 0.12375 1.44375 0.2475 2.1875 0.375 C1.1975 0.87 1.1975 0.87 0.1875 1.375 C0.5175 2.365 0.8475 3.355 1.1875 4.375 C1.8475 4.705 2.5075 5.035 3.1875 5.375 C1.5375 6.695 -0.1125 8.015 -1.8125 9.375 C-3.7925 8.385 -5.7725 7.395 -7.8125 6.375 C-3.50480769 0.46730769 -3.50480769 0.46730769 0 0 Z " fill="#E6E8E7" transform="translate(328.8125,241.625)"/>
<path d="M0 0 C2.475 0.99 2.475 0.99 5 2 C4.79375 2.61875 4.5875 3.2375 4.375 3.875 C4.25125 4.57625 4.1275 5.2775 4 6 C4.66 6.66 5.32 7.32 6 8 C5.34 9.32 4.68 10.64 4 12 C1.69 10.35 -0.62 8.7 -3 7 C-2.67 6.01 -2.34 5.02 -2 4 C-1.34 4 -0.68 4 0 4 C0 2.68 0 1.36 0 0 Z " fill="#DCDCDC" transform="translate(187,229)"/>
<path d="M0 0 C0 2 0 2 -1.5 3.625 C-1.995 4.07875 -2.49 4.5325 -3 5 C-2.67 5.99 -2.34 6.98 -2 8 C-4.64 8 -7.28 8 -10 8 C-9.01 7.34 -8.02 6.68 -7 6 C-8.65 6 -10.3 6 -12 6 C-8.57918552 1.23529412 -8.57918552 1.23529412 -6 0.1875 C-4.00775949 0.00072745 -2.00097632 0 0 0 Z " fill="#E3E3E3" transform="translate(260,204)"/>
<path d="M0 0 C-0.33 1.32 -0.66 2.64 -1 4 C-1.66 4 -2.32 4 -3 4 C-3 4.66 -3 5.32 -3 6 C-2.01 6.33 -1.02 6.66 0 7 C-1.32 8.32 -2.64 9.64 -4 11 C-4.66 10.01 -5.32 9.02 -6 8 C-5.34 7.01 -4.68 6.02 -4 5 C-6.64 5.66 -9.28 6.32 -12 7 C-8.51013292 3.25162425 -5.32108894 0 0 0 Z " fill="#D5D7D6" transform="translate(332,189)"/>
<path d="M0 0 C0.66 0 1.32 0 2 0 C4.05882353 14.41176471 4.05882353 14.41176471 1 19 C0.31008592 15.67099713 -0.35382375 12.33776756 -1 9 C-1.14050781 8.28972656 -1.28101563 7.57945312 -1.42578125 6.84765625 C-1.75 5 -1.75 5 -2 2 C-1.34 1.34 -0.68 0.68 0 0 Z " fill="#EAEAEA" transform="translate(260,138)"/>
<path d="M0 0 C1.625 0.875 1.625 0.875 2.625 2.875 C1.16962432 3.71348804 -0.28940373 4.54563934 -1.75 5.375 C-2.96816406 6.07109375 -2.96816406 6.07109375 -4.2109375 6.78125 C-6.375 7.875 -6.375 7.875 -8.375 7.875 C-8.705 6.555 -9.035 5.235 -9.375 3.875 C-3.01859352 -0.15887334 -3.01859352 -0.15887334 0 0 Z " fill="#0B0C0C" transform="translate(337.375,336.125)"/>
<path d="M0 0 C0.99 0.33 1.98 0.66 3 1 C4.1875 4.0625 4.1875 4.0625 5 7 C1.81926598 8.59036701 -0.62426403 7.78365299 -4 7 C-5.4375 4.9375 -5.4375 4.9375 -6 3 C-5.01 2.34 -4.02 1.68 -3 1 C-2.34 1.66 -1.68 2.32 -1 3 C-0.67 2.01 -0.34 1.02 0 0 Z " fill="#E0E0E0" transform="translate(133,176)"/>
<path d="M0 0 C0.99 0.33 1.98 0.66 3 1 C3 2.32 3 3.64 3 5 C3.66 5.33 4.32 5.66 5 6 C4.67 6.99 4.34 7.98 4 9 C-0.56454251 8.45660208 -3.9728176 7.20536179 -8 5 C-7.01 4.34 -6.02 3.68 -5 3 C-5 3.66 -5 4.32 -5 5 C-3.35 4.67 -1.7 4.34 0 4 C0 2.68 0 1.36 0 0 Z " fill="#E1E3E2" transform="translate(226,116)"/>
<path d="M0 0 C-5.57760141 4.10492911 -10.18664785 6.53540588 -17.13842773 5.70654297 C-20.11358906 5.2251574 -23.05923523 4.65879481 -26 4 C-26 3.67 -26 3.34 -26 3 C-25.01 2.96261719 -24.02 2.92523438 -23 2.88671875 C-16.26466713 2.57126645 -5.53612032 -1.84537344 0 0 Z " fill="#393B3A" transform="translate(325,356)"/>
<path d="M0 0 C1.65 0 3.3 0 5 0 C5 0.66 5 1.32 5 2 C5.99 2.33 6.98 2.66 8 3 C7.67 3.99 7.34 4.98 7 6 C3.70298938 7.34807677 0.2645039 7.10070113 -3.25 7.0625 C-4.32765625 7.05347656 -5.4053125 7.04445313 -6.515625 7.03515625 C-7.33546875 7.02355469 -8.1553125 7.01195312 -9 7 C-9 6.67 -9 6.34 -9 6 C-5.04 5.34 -1.08 4.68 3 4 C2.01 3.01 1.02 2.02 0 1 C0 0.67 0 0.34 0 0 Z " fill="#EBEDEC" transform="translate(313,351)"/>
<path d="M0 0 C0.66 0.165 1.32 0.33 2 0.5 C5.15069907 1.10959932 5.15069907 1.10959932 9 1 C12.24185221 1 14.88167619 1.22041905 18 2 C18 2.66 18 3.32 18 4 C14.77544247 5.61227876 11.496251 5.46900928 8 5 C5.18098264 3.90583902 2.59550921 2.5462608 0 1 C0 0.67 0 0.34 0 0 Z " fill="#D2D2D2" transform="translate(312,307)"/>
<path d="M0 0 C0.375 2.1875 0.375 2.1875 0 5 C-3.4092634 8.4092634 -6.3707042 10.50228665 -11 12 C-9.56438314 8.81293058 -7.79733671 6.37830895 -5.5 3.75 C-4.8915625 3.04359375 -4.283125 2.3371875 -3.65625 1.609375 C-2 0 -2 0 0 0 Z " fill="#1E201F" transform="translate(333,247)"/>
<path d="M0 0 C2 1.25 2 1.25 4 3 C4 4.32 4 5.64 4 7 C4.33 5.68 4.66 4.36 5 3 C5.66 3 6.32 3 7 3 C7.33 5.97 7.66 8.94 8 12 C7.01 12.33 6.02 12.66 5 13 C3.0549 10.08235 2.54723683 8.37462715 2 5 C1.34 5 0.68 5 0 5 C0 3.35 0 1.7 0 0 Z " fill="#EEEFEE" transform="translate(240,313)"/>
<path d="M0 0 C0.99 0.33 1.98 0.66 3 1 C2.01 1.495 2.01 1.495 1 2 C3.97 2.495 3.97 2.495 7 3 C7 3.66 7 4.32 7 5 C0.6 8.07692308 0.6 8.07692308 -2.4375 7.6875 C-2.953125 7.460625 -3.46875 7.23375 -4 7 C-3.67 5.68 -3.34 4.36 -3 3 C-2.34 3 -1.68 3 -1 3 C-0.67 2.01 -0.34 1.02 0 0 Z " fill="#EBEBEB" transform="translate(333,302)"/>
<path d="M0 0 C0.66 0.33 1.32 0.66 2 1 C2.59355614 3.64860427 2.74209269 6.29197322 3 9 C3.66 9 4.32 9 5 9 C5.33 8.34 5.66 7.68 6 7 C6.73080266 8.97746603 7.39421747 10.98072489 8 13 C7.67 13.66 7.34 14.32 7 15 C6.34 14.67 5.68 14.34 5 14 C5.33 12.68 5.66 11.36 6 10 C4.02 10.66 2.04 11.32 0 12 C0 8 0 4 0 0 Z " fill="#D7D9D8" transform="translate(307,287)"/>
<path d="M0 0 C0.69710731 1.28650706 1.38242876 2.57940665 2.0625 3.875 C2.44535156 4.59429687 2.82820312 5.31359375 3.22265625 6.0546875 C3.47917969 6.69664062 3.73570312 7.33859375 4 8 C3.67 8.66 3.34 9.32 3 10 C2.34 10 1.68 10 1 10 C0.67 8.02 0.34 6.04 0 4 C-0.99 4 -1.98 4 -3 4 C-3.33 4.99 -3.66 5.98 -4 7 C-4.99 7.495 -4.99 7.495 -6 8 C-6.625 6.1875 -6.625 6.1875 -7 4 C-4.83989616 0.75984424 -3.8842653 0 0 0 Z " fill="#D0D1D0" transform="translate(236,284)"/>
<path d="M0 0 C4.97209562 1.76429199 9.43438061 4.3939166 14 7 C14 9.31 14 11.62 14 14 C13.360625 13.34 12.72125 12.68 12.0625 12 C8.79609901 8.71471808 5.29028428 5.70706564 1.79296875 2.671875 C1.20128906 2.12015625 0.60960937 1.5684375 0 1 C0 0.67 0 0.34 0 0 Z " fill="#282A29" transform="translate(300,118)"/>
<path d="M0 0 C0.804375 0.495 1.60875 0.99 2.4375 1.5 C2.1075 2.49 1.7775 3.48 1.4375 4.5 C-3.3125 3.75 -3.3125 3.75 -5.5625 1.5 C-8.61520463 1.34188612 -8.61520463 1.34188612 -11.5625 2.5 C-11.5625 1.84 -11.5625 1.18 -11.5625 0.5 C-13.2125 0.83 -14.8625 1.16 -16.5625 1.5 C-13.86169966 -3.90160068 -4.4972462 -1.89357735 0 0 Z " fill="#0E100F" transform="translate(221.5625,121.5)"/>
<path d="M0 0 C1.4540625 0.0309375 1.4540625 0.0309375 2.9375 0.0625 C2.64875 0.59875 2.36 1.135 2.0625 1.6875 C0.77038192 4.41530484 -0.14808592 7.18862718 -1.0625 10.0625 C-2.0525 10.0625 -3.0425 10.0625 -4.0625 10.0625 C-4.9028457 6.70111721 -5.23968642 4.35862199 -4.0625 1.0625 C-3.0625 0.0625 -3.0625 0.0625 0 0 Z " fill="#0E100F" transform="translate(277.0625,241.9375)"/>
<path d="M0 0 C2.1875 0.3125 2.1875 0.3125 4 1 C3.4140625 7.15234375 3.4140625 7.15234375 3 9 C2.01 9.495 2.01 9.495 1 10 C1 9.34 1 8.68 1 8 C0.34 8 -0.32 8 -1 8 C-1.66 6.35 -2.32 4.7 -3 3 C-1.75 1.4375 -1.75 1.4375 0 0 Z " fill="#E8EAE9" transform="translate(117,240)"/>
<path d="M0 0 C0.82638376 2.89234315 1 4.88742431 1 8 C1.99 7.01 2.98 6.02 4 5 C4 7.97 4 10.94 4 14 C3.34 14 2.68 14 2 14 C1.67 14.66 1.34 15.32 1 16 C0.67 14.35 0.34 12.7 0 11 C-0.33 11 -0.66 11 -1 11 C-1.0270043 9.54176788 -1.04639787 8.08339325 -1.0625 6.625 C-1.07410156 5.81289063 -1.08570313 5.00078125 -1.09765625 4.1640625 C-1 2 -1 2 0 0 Z " fill="#D5D6D5" transform="translate(146,280)"/>
<path d="M0 0 C0.66 0 1.32 0 2 0 C2.33 1.65 2.66 3.3 3 5 C3.66 5 4.32 5 5 5 C5 5.99 5 6.98 5 8 C5.99 8.66 6.98 9.32 8 10 C7.67 10.66 7.34 11.32 7 12 C3.20048294 10.50733258 1.1645138 8.44718865 -1 5 C-0.75 2.1875 -0.75 2.1875 0 0 Z " fill="#0F1110" transform="translate(155,328)"/>
<path d="M0 0 C2 1 2 1 2.8515625 3.28515625 C3.10679687 4.20167969 3.36203125 5.11820312 3.625 6.0625 C3.88539063 6.98160156 4.14578125 7.90070313 4.4140625 8.84765625 C4.60742188 9.55792969 4.80078125 10.26820313 5 11 C3 10 3 10 2 7 C0.68 7.33 -0.64 7.66 -2 8 C-2.33 6.02 -2.66 4.04 -3 2 C-2.01 1.34 -1.02 0.68 0 0 Z " fill="#D7D7D7" transform="translate(240,296)"/>
<path d="M0 0 C0 0.99 0 1.98 0 3 C-1.65 3.33 -3.3 3.66 -5 4 C-4.34 6.31 -3.68 8.62 -3 11 C-3.99 11.495 -3.99 11.495 -5 12 C-5 11.34 -5 10.68 -5 10 C-5.99 9.67 -6.98 9.34 -8 9 C-7.67 8.34 -7.34 7.68 -7 7 C-8.32 6.67 -9.64 6.34 -11 6 C-7.37 4.02 -3.74 2.04 0 0 Z " fill="#D5D7D6" transform="translate(347,179)"/>
<path d="M0 0 C0.33 0.66 0.66 1.32 1 2 C-0.47169811 5.73584906 -0.47169811 5.73584906 -3 7 C-2.1654738 9.50357861 -1.20628008 11.66785852 0 14 C-0.66 14.66 -1.32 15.32 -2 16 C-2.33 15.01 -2.66 14.02 -3 13 C-3.99 13.495 -3.99 13.495 -5 14 C-6.2109375 11.80078125 -6.2109375 11.80078125 -7 9 C-5.6640625 6.54296875 -5.6640625 6.54296875 -3.625 4.1875 C-2.95726562 3.39730469 -2.28953125 2.60710937 -1.6015625 1.79296875 C-1.07304687 1.20128906 -0.54453125 0.60960937 0 0 Z " fill="#D0D1D0" transform="translate(320,248)"/>
<path d="M0 0 C6.6 0 13.2 0 20 0 C20 0.33 20 0.66 20 1 C15.38 1.33 10.76 1.66 6 2 C6.99 3.485 6.99 3.485 8 5 C6.02 5 4.04 5 2 5 C1.34 3.35 0.68 1.7 0 0 Z " fill="#CCCCCC" transform="translate(212,171)"/>
<path d="M0 0 C0 8.25 0 16.5 0 25 C-0.33 25 -0.66 25 -1 25 C-1.33 18.07 -1.66 11.14 -2 4 C-3.32 3.67 -4.64 3.34 -6 3 C-2.25 0 -2.25 0 0 0 Z " fill="#1D1F1E" transform="translate(372,288)"/>
<path d="M0 0 C2.475 0.99 2.475 0.99 5 2 C5 2.99 5 3.98 5 5 C4.01 4.34 3.02 3.68 2 3 C2.99 5.64 3.98 8.28 5 11 C4.01 11 3.02 11 2 11 C-0.46921528 8.00166715 -1.05635938 6.59740941 -0.6875 2.6875 C-0.460625 1.800625 -0.23375 0.91375 0 0 Z " fill="#EAEBEA" transform="translate(221,267)"/>
<path d="M0 0 C2 1 4 2 6 3 C5.67 4.32 5.34 5.64 5 7 C4.01 6.34 3.02 5.68 2 5 C1.01 5 0.02 5 -1 5 C-1.66 5.66 -2.32 6.32 -3 7 C-3.66 6.34 -4.32 5.68 -5 5 C-3.35 3.35 -1.7 1.7 0 0 Z " fill="#D7D7D7" transform="translate(126,225)"/>
<path d="M0 0 C7.50769231 0.61538462 7.50769231 0.61538462 10 2.5625 C10.33 3.036875 10.66 3.51125 11 4 C3.57142857 5.28571429 3.57142857 5.28571429 0 4 C0 2.68 0 1.36 0 0 Z " fill="#0F0F0F" transform="translate(144,194)"/>
<path d="M0 0 C1.9375 0.6875 1.9375 0.6875 4 2 C4.75 4.625 4.75 4.625 5 7 C4.01 7.33 3.02 7.66 2 8 C0.5 6.625 0.5 6.625 -1 5 C-1 4.34 -1 3.68 -1 3 C-1.66 2.67 -2.32 2.34 -3 2 C-2.01 1.34 -1.02 0.68 0 0 Z " fill="#D6D6D6" transform="translate(356,288)"/>
<path d="M0 0 C0.66 0.33 1.32 0.66 2 1 C-6.5 11.38888889 -6.5 11.38888889 -12 12 C-8 8 -4 4 0 0 Z " fill="#D6D6D6" transform="translate(316,198)"/>
<path d="M0 0 C0.33 0.66 0.66 1.32 1 2 C2.32 1.34 3.64 0.68 5 0 C4.67 1.65 4.34 3.3 4 5 C-0.51720311 5.36625971 -0.51720311 5.36625971 -2.8125 3.625 C-4 2 -4 2 -4 0 C-5.32 -0.33 -6.64 -0.66 -8 -1 C-4.61951646 -2.20731555 -3.00565087 -1.96921954 0 0 Z " fill="#DADBDA" transform="translate(322,351)"/>
<path d="M0 0 C2.80435411 -0.05632424 5.35146678 0.04185298 8.125 0.3125 C9.25615234 0.4043457 9.25615234 0.4043457 10.41015625 0.49804688 C12.27463438 0.6514533 14.13752498 0.82393459 16 1 C12.29583874 3.37590142 9.07015427 3.20500286 4.75 3.125 C3.48671875 3.10695312 2.2234375 3.08890625 0.921875 3.0703125 C-0.04234375 3.04710937 -1.0065625 3.02390625 -2 3 C-1.34 2.01 -0.68 1.02 0 0 Z " fill="#E5E6E5" transform="translate(196,206)"/>
<path d="M0 0 C2.9375 0.375 2.9375 0.375 6 1 C6.33 1.66 6.66 2.32 7 3 C7.66 3.144375 8.32 3.28875 9 3.4375 C9.66 3.623125 10.32 3.80875 11 4 C11.33 4.99 11.66 5.98 12 7 C7.24518354 6.42365861 4.02951788 4.44931479 0 2 C0 1.34 0 0.68 0 0 Z " fill="#D0D0D0" transform="translate(141,188)"/>
<path d="M0 0 C0.433125 0.474375 0.86625 0.94875 1.3125 1.4375 C3.02309613 3.23686957 3.02309613 3.23686957 6 4 C6.33 4.99 6.66 5.98 7 7 C6.01 7.66 5.02 8.32 4 9 C1 8 1 8 -1 5 C-0.625 2.3125 -0.625 2.3125 0 0 Z " fill="#EAEAEA" transform="translate(271,336)"/>
<path d="M0 0 C0.33 0.99 0.66 1.98 1 3 C-1.8125 4.125 -1.8125 4.125 -5 5 C-5.99 4.34 -6.98 3.68 -8 3 C-7.67 2.01 -7.34 1.02 -7 0 C-4.3333581 -1.33332095 -2.83319697 -0.67102033 0 0 Z " fill="#E4E4E4" transform="translate(341,301)"/>
<path d="M0 0 C0.66 0.33 1.32 0.66 2 1 C2.33 2.65 2.66 4.3 3 6 C-0.63 6 -4.26 6 -8 6 C-5.36435544 3.36435544 -3.27929831 1.68169144 0 0 Z " fill="#D5D7D6" transform="translate(349,292)"/>
<path d="M0 0 C0.66 0.99 1.32 1.98 2 3 C4.05925139 3.72382467 4.05925139 3.72382467 6 4 C5.67 4.66 5.34 5.32 5 6 C3.34608154 6.39171753 1.67654729 6.72057545 0 7 C-0.99 7.33 -1.98 7.66 -3 8 C-3.66 7.34 -4.32 6.68 -5 6 C-3.35 4.02 -1.7 2.04 0 0 Z " fill="#D9D9D9" transform="translate(298,216)"/>
<path d="M0 0 C0 0.66 0 1.32 0 2 C0.66 2 1.32 2 2 2 C2 2.66 2 3.32 2 4 C-0.40545638 5.20272819 -1.94996953 5.10071472 -4.625 5.0625 C-5.85089844 5.04896484 -5.85089844 5.04896484 -7.1015625 5.03515625 C-8.04128906 5.01775391 -8.04128906 5.01775391 -9 5 C-2.87096774 0 -2.87096774 0 0 0 Z " fill="#191919" transform="translate(341,192)"/>
<path d="M0 0 C0.515625 0.2475 1.03125 0.495 1.5625 0.75 C0.1725869 3.52982621 -1.62408353 3.62463341 -4.4375 4.75 C-4.7675 5.41 -5.0975 6.07 -5.4375 6.75 C-6.4275 6.42 -7.4175 6.09 -8.4375 5.75 C-8.7675 5.09 -9.0975 4.43 -9.4375 3.75 C-3.0375 -0.31153846 -3.0375 -0.31153846 0 0 Z " fill="#DBDCDC" transform="translate(359.4375,328.25)"/>
<path d="M0 0 C-2.94951622 2.51255085 -5.1280246 3.63124044 -9 4 C-12.3125 3.5625 -12.3125 3.5625 -15 3 C-12.22199328 1.14799552 -10.66558555 0.5142048 -7.5 -0.1875 C-6.7265625 -0.36667969 -5.953125 -0.54585937 -5.15625 -0.73046875 C-3 -1 -3 -1 0 0 Z " fill="#343434" transform="translate(273,209)"/>
<path d="M0 0 C1.65 0.33 3.3 0.66 5 1 C4.34 2.32 3.68 3.64 3 5 C1.35 4.67 -0.3 4.34 -2 4 C-2 3.34 -2 2.68 -2 2 C-1.34 2 -0.68 2 0 2 C0 1.34 0 0.68 0 0 Z M2 5 C4.475 5.99 4.475 5.99 7 7 C5.68 7.33 4.36 7.66 3 8 C2.67 7.01 2.34 6.02 2 5 Z " fill="#E5E7E6" transform="translate(169,198)"/>
<path d="M0 0 C0.66 0.99 1.32 1.98 2 3 C2.66 2.34 3.32 1.68 4 1 C4.33 3.31 4.66 5.62 5 8 C4.01 8.495 4.01 8.495 3 9 C3 8.34 3 7.68 3 7 C0.525 6.01 0.525 6.01 -2 5 C-1.34 3.35 -0.68 1.7 0 0 Z " fill="#D8D8D8" transform="translate(286,232)"/>
<path d="M0 0 C3.63 1.65 7.26 3.3 11 5 C10.34 5.66 9.68 6.32 9 7 C5.875 6.625 5.875 6.625 3 6 C2.67 4.68 2.34 3.36 2 2 C1.34 2 0.68 2 0 2 C0 1.34 0 0.68 0 0 Z " fill="#D8DAD9" transform="translate(160,192)"/>
<path d="M0 0 C1.32 0.33 2.64 0.66 4 1 C3.54625 1.4125 3.0925 1.825 2.625 2.25 C0.94049626 4.06408095 0.00734029 5.75285627 -1 8 C-2.65 6.35 -4.3 4.7 -6 3 C-3 2 -3 2 -1 2 C-0.67 1.34 -0.34 0.68 0 0 Z " fill="#D3D3D3" transform="translate(258,136)"/>
<path d="M0 0 C0.66 0.33 1.32 0.66 2 1 C2 3.31 2 5.62 2 8 C1.34 8 0.68 8 0 8 C0 7.34 0 6.68 0 6 C-1.65 5.67 -3.3 5.34 -5 5 C-3.35 3.35 -1.7 1.7 0 0 Z " fill="#181A19" transform="translate(138,320)"/>
<path d="M0 0 C0.99 0 1.98 0 3 0 C3 1.32 3 2.64 3 4 C3.66 4 4.32 4 5 4 C5 4.66 5 5.32 5 6 C4.01 6.33 3.02 6.66 2 7 C2 6.34 2 5.68 2 5 C1.01 5 0.02 5 -1 5 C-1.33 5.66 -1.66 6.32 -2 7 C-1.125 1.125 -1.125 1.125 0 0 Z " fill="#EBEDEC" transform="translate(276,251)"/>
<path d="M0 0 C0.99 0.33 1.98 0.66 3 1 C3.33 3.31 3.66 5.62 4 8 C3.01 8.33 2.02 8.66 1 9 C-2 5.25 -2 5.25 -2 3 C-1.34 3 -0.68 3 0 3 C0 2.01 0 1.02 0 0 Z " fill="#ECECEC" transform="translate(199,239)"/>
<path d="M0 0 C0.66 0.33 1.32 0.66 2 1 C1.01 2.485 1.01 2.485 0 4 C1.32 4 2.64 4 4 4 C4 4.66 4 5.32 4 6 C1 8 1 8 -2 8 C-2 5.69 -2 3.38 -2 1 C-1.34 0.67 -0.68 0.34 0 0 Z " fill="#EAEAEA" transform="translate(292,191)"/>
<path d="M0 0 C2.475 0.99 2.475 0.99 5 2 C5 3.65 5 5.3 5 7 C3.68 7 2.36 7 1 7 C0.67 4.69 0.34 2.38 0 0 Z " fill="#080A09" transform="translate(313,126)"/>
<path d="M0 0 C3 1 3 1 4.1875 3.0625 C4.455625 3.701875 4.72375 4.34125 5 5 C4.34 5 3.68 5 3 5 C2.67 5.66 2.34 6.32 2 7 C0.02 5.68 -1.96 4.36 -4 3 C-2.1875 1.4375 -2.1875 1.4375 0 0 Z " fill="#1D1D1D" transform="translate(257,129)"/>
<path d="M0 0 C4.75 1.875 4.75 1.875 7 3 C6.6875 4.875 6.6875 4.875 6 7 C5.01 7.66 4.02 8.32 3 9 C2.01 6.03 1.02 3.06 0 0 Z " fill="#0D0F0E" transform="translate(272,326)"/>
<path d="M0 0 C0.66 0 1.32 0 2 0 C2.625 1.8125 2.625 1.8125 3 4 C2.01 5.485 2.01 5.485 1 7 C0.34 6.67 -0.32 6.34 -1 6 C-1.33 6.99 -1.66 7.98 -2 9 C-2.66 9 -3.32 9 -4 9 C-2.80100302 5.9168649 -1.52299523 2.93720508 0 0 Z " fill="#D9DAD9" transform="translate(118,234)"/>
<path d="M0 0 C2.475 0.495 2.475 0.495 5 1 C5.125 5.75 5.125 5.75 4 8 C3.01 7.67 2.02 7.34 1 7 C0.09162237 4.52260646 0 2.66420516 0 0 Z " fill="#ECECEC" transform="translate(182,227)"/>
<path d="M0 0 C-2 2 -2 2 -4 3 C-4.33 3.99 -4.66 4.98 -5 6 C-6.875 5.6875 -6.875 5.6875 -9 5 C-9.66 4.01 -10.32 3.02 -11 2 C-9.54494642 1.47007308 -8.08581873 0.9513211 -6.625 0.4375 C-5.81289063 0.14746094 -5.00078125 -0.14257812 -4.1640625 -0.44140625 C-2 -1 -2 -1 0 0 Z " fill="#C7C7C7" transform="translate(272,201)"/>
<path d="M0 0 C0 0.66 0 1.32 0 2 C1.32 2.33 2.64 2.66 4 3 C3.25234375 3.06058594 2.5046875 3.12117188 1.734375 3.18359375 C0.74953125 3.26738281 -0.2353125 3.35117188 -1.25 3.4375 C-2.22453125 3.51871094 -3.1990625 3.59992188 -4.203125 3.68359375 C-6.56461753 3.95074584 -8.71901065 4.35371968 -11 5 C-11 4.34 -11 3.68 -11 3 C-9.73160474 2.49384702 -8.46016898 1.99530901 -7.1875 1.5 C-6.12595703 1.08234375 -6.12595703 1.08234375 -5.04296875 0.65625 C-3 0 -3 0 0 0 Z " fill="#EEF0EF" transform="translate(216,117)"/>
<path d="M0 0 C2.7839183 1.39195915 2.97898997 3.15575779 4 6 C2.68 6 1.36 6 0 6 C-0.66 7.32 -1.32 8.64 -2 10 C-2.25 3.375 -2.25 3.375 0 0 Z " fill="#EAEAEA" transform="translate(241,302)"/>
<path d="M0 0 C0.33 0 0.66 0 1 0 C1.33 4.29 1.66 8.58 2 13 C1.34 13 0.68 13 0 13 C-0.39222105 11.58800422 -0.76311059 10.17007236 -1.125 8.75 C-1.33382813 7.96109375 -1.54265625 7.1721875 -1.7578125 6.359375 C-2.04314411 3.5796929 -1.44977894 2.34112451 0 0 Z " fill="#EEEFEE" transform="translate(310,283)"/>
<path d="M0 0 C0.66 0 1.32 0 2 0 C2 0.66 2 1.32 2 2 C2.99 1.67 3.98 1.34 5 1 C5 1.66 5 2.32 5 3 C5.99 3.33 6.98 3.66 8 4 C7.67 4.66 7.34 5.32 7 6 C2.25 5.25 2.25 5.25 0 3 C0 2.01 0 1.02 0 0 Z " fill="#0D0D0D" transform="translate(191,280)"/>
<path d="M0 0 C0.33 0.66 0.66 1.32 1 2 C0.67 2.66 0.34 3.32 0 4 C0.99 3.67 1.98 3.34 3 3 C3.33 5.64 3.66 8.28 4 11 C3.01 10.67 2.02 10.34 1 10 C1 8.68 1 7.36 1 6 C0.01 6 -0.98 6 -2 6 C-1.34 4.02 -0.68 2.04 0 0 Z " fill="#CCCECD" transform="translate(278,245)"/>
<path d="M0 0 C3.76706644 0.52320367 6.27388801 1.27388801 9 4 C9 5.32 9 6.64 9 8 C7 7 7 7 6 5 C5.175 4.690625 4.35 4.38125 3.5 4.0625 C2.675 3.711875 1.85 3.36125 1 3 C0.67 2.01 0.34 1.02 0 0 Z " fill="#E8E8E8" transform="translate(189,232)"/>
<path d="M0 0 C0 3 0 3 -2.1875 5.26171875 C-3.115625 6.06222656 -4.04375 6.86273438 -5 7.6875 C-5.928125 8.49574219 -6.85625 9.30398437 -7.8125 10.13671875 C-8.8953125 11.05904297 -8.8953125 11.05904297 -10 12 C-10.66 11.67 -11.32 11.34 -12 11 C-10.37807179 9.35113941 -8.75236228 7.7059976 -7.125 6.0625 C-6.22007812 5.14597656 -5.31515625 4.22945312 -4.3828125 3.28515625 C-2 1 -2 1 0 0 Z " fill="#303030" transform="translate(318,207)"/>
<path d="M0 0 C0.99 0.33 1.98 0.66 3 1 C1.87895467 2.31587941 0.75303035 3.62760353 -0.375 4.9375 C-1.00148438 5.66839844 -1.62796875 6.39929688 -2.2734375 7.15234375 C-4 9 -4 9 -6 10 C-5.6875 8.0625 -5.6875 8.0625 -5 6 C-4.01 5.67 -3.02 5.34 -2 5 C-0.78130071 2.49552484 -0.78130071 2.49552484 0 0 Z " fill="#D3D3D3" transform="translate(310,181)"/>
<path d="M0 0 C2.0625 1.625 2.0625 1.625 4 4 C3.75 7.25 3.75 7.25 3 10 C0 8 0 8 -0.75 5 C-1 2 -1 2 0 0 Z " fill="#D6D6D6" transform="translate(262,138)"/>
<path d="M0 0 C0.66 0 1.32 0 2 0 C2.6875 1.75 2.6875 1.75 3 4 C1.5625 6.25 1.5625 6.25 0 8 C-1.65 7.67 -3.3 7.34 -5 7 C-4.34 6.34 -3.68 5.68 -3 5 C-1.06201737 2.22739701 -1.06201737 2.22739701 0 0 Z " fill="#DADCDB" transform="translate(249,382)"/>
<path d="M0 0 C3.96 1.98 3.96 1.98 8 4 C5 6 5 6 1.8125 5.625 C0.884375 5.41875 -0.04375 5.2125 -1 5 C-0.67 3.35 -0.34 1.7 0 0 Z " fill="#101211" transform="translate(354,248)"/>
<path d="M0 0 C1 3 1 3 0 6 C-0.99 6.495 -0.99 6.495 -2 7 C-2.65555119 9.52733235 -2.65555119 9.52733235 -3 12 C-3.99 12 -4.98 12 -6 12 C-4.68139111 7.38486888 -2.78644563 3.90102388 0 0 Z " fill="#2F302F" transform="translate(290,240)"/>
<path d="M0 0 C1.32 0 2.64 0 4 0 C4.6875 1.75 4.6875 1.75 5 4 C3.5625 6.25 3.5625 6.25 2 8 C2 7.34 2 6.68 2 6 C1.34 6 0.68 6 0 6 C0 4.02 0 2.04 0 0 Z " fill="#141414" transform="translate(113,232)"/>
<path d="M0 0 C0.721875 0.144375 1.44375 0.28875 2.1875 0.4375 C3.5796875 0.7159375 3.5796875 0.7159375 5 1 C6.66666667 1.33333333 8.33333333 1.66666667 10 2 C10 3.32 10 4.64 10 6 C6.51329166 4.8905928 3.22515763 3.73662334 0 2 C0 1.34 0 0.68 0 0 Z " fill="#D5D7D6" transform="translate(162,200)"/>
<path d="M0 0 C0.89332031 0.03480469 1.78664062 0.06960937 2.70703125 0.10546875 C3.60808594 0.13253906 4.50914062 0.15960938 5.4375 0.1875 C6.46810547 0.23970703 6.46810547 0.23970703 7.51953125 0.29296875 C7.51953125 0.95296875 7.51953125 1.61296875 7.51953125 2.29296875 C1.08453125 2.78796875 1.08453125 2.78796875 -5.48046875 3.29296875 C-2.48046875 0.29296875 -2.48046875 0.29296875 0 0 Z " fill="#EFF1F0" transform="translate(155.48046875,149.70703125)"/>
<path d="M0 0 C0 3 0 3 -2 6 C-4 4.6875 -4 4.6875 -6 3 C-6 2.01 -6 1.02 -6 0 C-2.25 -1.125 -2.25 -1.125 0 0 Z " fill="#1A1C1B" transform="translate(127,314)"/>
<path d="M0 0 C0.99 0 1.98 0 3 0 C5.42857143 7.42857143 5.42857143 7.42857143 4 11 C4 10.01 4 9.02 4 8 C3.34 8 2.68 8 2 8 C1.34 5.36 0.68 2.72 0 0 Z " fill="#CACACA" transform="translate(243,308)"/>
<path d="M0 0 C2.475 0.495 2.475 0.495 5 1 C5 1.99 5 2.98 5 4 C4.01 4.66 3.02 5.32 2 6 C1.34 5.67 0.68 5.34 0 5 C0 3.35 0 1.7 0 0 Z " fill="#181A19" transform="translate(320,240)"/>
<path d="M0 0 C2.875 0.3125 2.875 0.3125 6 1 C6.66 1.99 7.32 2.98 8 4 C6.25 4.75 6.25 4.75 4 5 C1.75 3.125 1.75 3.125 0 1 C0 0.67 0 0.34 0 0 Z " fill="#E7E9E8" transform="translate(246,168)"/>
<path d="M0 0 C-1.32 1.65 -2.64 3.3 -4 5 C-5.32 4.34 -6.64 3.68 -8 3 C-8 2.34 -8 1.68 -8 1 C-4.93251126 -0.86240388 -3.40254489 -1.2151946 0 0 Z " fill="#DFE1E0" transform="translate(176,153)"/>
<path d="M0 0 C1.32 0.66 2.64 1.32 4 2 C2.35 3.65 0.7 5.3 -1 7 C-3.475 6.01 -3.475 6.01 -6 5 C-6 4.67 -6 4.34 -6 4 C-4.02 4 -2.04 4 0 4 C0 2.68 0 1.36 0 0 Z " fill="#D8D8D8" transform="translate(241,125)"/>
<path d="M0 0 C0.99 0.33 1.98 0.66 3 1 C3 1.66 3 2.32 3 3 C-3.75 7 -3.75 7 -6 7 C-6 5.68 -6 4.36 -6 3 C-5.195625 2.87625 -4.39125 2.7525 -3.5625 2.625 C-2.716875 2.41875 -1.87125 2.2125 -1 2 C-0.67 1.34 -0.34 0.68 0 0 Z " fill="#0F0F0F" transform="translate(281,376)"/>
<path d="M0 0 C0.66 0 1.32 0 2 0 C2 0.66 2 1.32 2 2 C2.99 1.67 3.98 1.34 5 1 C5.33 1.66 5.66 2.32 6 3 C3.6875 4.5625 3.6875 4.5625 1 6 C0.01 5.67 -0.98 5.34 -2 5 C-1.34 3.35 -0.68 1.7 0 0 Z " fill="#141414" transform="translate(347,288)"/>
<path d="M0 0 C1.32 0.66 2.64 1.32 4 2 C4 3.65 4 5.3 4 7 C1.37098712 5.47793991 -0.84365964 4.15634036 -3 2 C-2.01 1.34 -1.02 0.68 0 0 Z " fill="#DFE1E0" transform="translate(218,259)"/>
<path d="M0 0 C0.8971875 0.5259375 0.8971875 0.5259375 1.8125 1.0625 C4.10813214 2.33304698 4.10813214 2.33304698 7 1 C5.75023244 4.65316671 5.32901247 5.78065836 2 8 C2 7.01 2 6.02 2 5 C1.34 4.67 0.68 4.34 0 4 C0 2.68 0 1.36 0 0 Z " fill="#ECECEC" transform="translate(291,226)"/>
<path d="M0 0 C0.66 0.33 1.32 0.66 2 1 C2 2.65 2 4.3 2 6 C0.35 6 -1.3 6 -3 6 C-3.33 5.01 -3.66 4.02 -4 3 C-2.68 2.01 -1.36 1.02 0 0 Z " fill="#131514" transform="translate(326,200)"/>
<path d="M0 0 C0.66 0.33 1.32 0.66 2 1 C1.67 2.98 1.34 4.96 1 7 C-0.32 6.34 -1.64 5.68 -3 5 C-3 3.68 -3 2.36 -3 1 C-2.01 0.67 -1.02 0.34 0 0 Z " fill="#E7E9E8" transform="translate(345,182)"/>
<path d="M0 0 C1.65 0 3.3 0 5 0 C3.8141763 3.37503669 2.72426311 5.64722731 0 8 C0 5.33333333 0 2.66666667 0 0 Z " fill="#151716" transform="translate(307,168)"/>
<path d="M0 0 C5.75 1.875 5.75 1.875 8 3 C8 3.66 8 4.32 8 5 C6.35 5.33 4.7 5.66 3 6 C2.01 4.02 1.02 2.04 0 0 Z " fill="#E8EAE9" transform="translate(228,118)"/>
<path d="M0 0 C0.99 0 1.98 0 3 0 C2.1875 3.4375 2.1875 3.4375 1 7 C0.01 7.33 -0.98 7.66 -2 8 C-2.33 7.01 -2.66 6.02 -3 5 C-2.01 4.67 -1.02 4.34 0 4 C0 2.68 0 1.36 0 0 Z " fill="#E7E9E8" transform="translate(325,194)"/>
<path d="M0 0 C0.66 0.66 1.32 1.32 2 2 C0.02 4.97 0.02 4.97 -2 8 C-3.65 6.35 -5.3 4.7 -7 3 C-5.68 3.33 -4.36 3.66 -3 4 C-2.01 2.68 -1.02 1.36 0 0 Z " fill="#D3D4D4" transform="translate(305,123)"/>
<path d="M0 0 C0.66 0.33 1.32 0.66 2 1 C0.9375 2.9375 0.9375 2.9375 -1 5 C-4.6875 5.75 -4.6875 5.75 -8 6 C-5.63404067 3.38499232 -3.13950774 1.61000397 0 0 Z " fill="#C3C3C3" transform="translate(285,377)"/>
<path d="M0 0 C-2.85306797 2.32472205 -5.54074837 3.7508258 -9 5 C-8.00233891 2.50584728 -7.31383315 1.21259665 -5.0625 -0.3125 C-3 -1 -3 -1 0 0 Z " fill="#111211" transform="translate(340,338)"/>
<path d="M0 0 C-1 1.5625 -1 1.5625 -3 3 C-5.76614782 2.96726452 -8.26030547 2.49404328 -11 2 C-11 1.67 -11 1.34 -11 1 C-9.5437328 0.63743142 -8.08488815 0.28520207 -6.625 -0.0625 C-5.40683594 -0.35833984 -5.40683594 -0.35833984 -4.1640625 -0.66015625 C-2 -1 -2 -1 0 0 Z " fill="#D0D0D0" transform="translate(333,303)"/>
<path d="M0 0 C1.32 0.99 2.64 1.98 4 3 C3.34 4.32 2.68 5.64 2 7 C0.68 5.68 -0.64 4.36 -2 3 C-1 1 -1 1 0 0 Z " fill="#282828" transform="translate(308,303)"/>
<path d="M0 0 C1.32 0.66 2.64 1.32 4 2 C4 2.66 4 3.32 4 4 C3.01 4 2.02 4 1 4 C1.33 5.32 1.66 6.64 2 8 C1.34 8 0.68 8 0 8 C-0.66 6.35 -1.32 4.7 -2 3 C-1.34 3 -0.68 3 0 3 C0 2.01 0 1.02 0 0 Z " fill="#EBEBEB" transform="translate(181,275)"/>
<path d="M0 0 C1.32 1.32 2.64 2.64 4 4 C3.67 4.66 3.34 5.32 3 6 C2.01 6 1.02 6 0 6 C-1.125 2.25 -1.125 2.25 0 0 Z " fill="#1E1E1E" transform="translate(219,272)"/>
<path d="M0 0 C2.475 0.495 2.475 0.495 5 1 C4.67 2.98 4.34 4.96 4 7 C3.67 5.68 3.34 4.36 3 3 C2.34 3 1.68 3 1 3 C0.67 3.99 0.34 4.98 0 6 C0 4.02 0 2.04 0 0 Z " fill="#EBEDEC" transform="translate(105,184)"/>
<path d="M0 0 C4.42857143 5.14285714 4.42857143 5.14285714 5 9 C2.5625 8.3125 2.5625 8.3125 0 7 C-0.875 4.5 -0.875 4.5 -1 2 C-0.67 1.34 -0.34 0.68 0 0 Z " fill="#D4D6D5" transform="translate(314,133)"/>
<path d="M0 0 C0.33 0.66 0.66 1.32 1 2 C3.32156597 2.40729228 5.6568787 2.74438677 8 3 C8 3.99 8 4.98 8 6 C4.08788267 4.84414715 1.1254959 3.64465038 -2 1 C-1.34 0.67 -0.68 0.34 0 0 Z " fill="#C8CAC9" transform="translate(220,119)"/>
<path d="M0 0 C1.21236328 0.01353516 1.21236328 0.01353516 2.44921875 0.02734375 C3.37154297 0.04474609 3.37154297 0.04474609 4.3125 0.0625 C4.3125 0.3925 4.3125 0.7225 4.3125 1.0625 C2.3325 1.3925 0.3525 1.7225 -1.6875 2.0625 C-1.3575 2.7225 -1.0275 3.3825 -0.6875 4.0625 C-1.6775 4.0625 -2.6675 4.0625 -3.6875 4.0625 C-3.6875 3.4025 -3.6875 2.7425 -3.6875 2.0625 C-5.3375 2.3925 -6.9875 2.7225 -8.6875 3.0625 C-6.88341097 -0.54567807 -3.60175697 -0.05219938 0 0 Z " fill="#4C4E4D" transform="translate(213.6875,119.9375)"/>
<path d="M0 0 C0 0.66 0 1.32 0 2 C-2.31 2.33 -4.62 2.66 -7 3 C-7.33 2.01 -7.66 1.02 -8 0 C-4.71023192 -1.09658936 -3.28696233 -0.79953138 0 0 Z " fill="#171918" transform="translate(264,105)"/>
<path d="M0 0 C0.66 0 1.32 0 2 0 C2.66 1.32 3.32 2.64 4 4 C4.33 4 4.66 4 5 4 C5 5.65 5 7.3 5 9 C4.01 9.33 3.02 9.66 2 10 C1.34 6.7 0.68 3.4 0 0 Z " fill="#CDCECE" transform="translate(240,318)"/>
<path d="M0 0 C0.33 0.66 0.66 1.32 1 2 C1.8971875 1.7215625 1.8971875 1.7215625 2.8125 1.4375 C5 1 5 1 8 2 C7.34 3.32 6.68 4.64 6 6 C6 5.34 6 4.68 6 4 C3.69 4 1.38 4 -1 4 C-0.67 2.68 -0.34 1.36 0 0 Z " fill="#C5C6C5" transform="translate(271,260)"/>
<path d="M0 0 C0 1.32 0 2.64 0 4 C-2.31 3.67 -4.62 3.34 -7 3 C-4.49955934 -0.00052879 -4.2621484 0 0 0 Z " fill="#D0D0D0" transform="translate(364,171)"/>
<path d="M0 0 C1.65 0.33 3.3 0.66 5 1 C3.02 1.99 3.02 1.99 1 3 C1 3.66 1 4.32 1 5 C-0.32 5.33 -1.64 5.66 -3 6 C-2 4 -1 2 0 0 Z " fill="#E4E6E5" transform="translate(243,127)"/>
<path d="M0 0 C2.97 1.98 2.97 1.98 6 4 C5.67 4.66 5.34 5.32 5 6 C4.01 6 3.02 6 2 6 C0.3125 4 0.3125 4 -1 2 C-0.67 1.34 -0.34 0.68 0 0 Z " fill="#E8E8E8" transform="translate(279,342)"/>
<path d="M0 0 C0.66 0.33 1.32 0.66 2 1 C0.68 2.65 -0.64 4.3 -2 6 C-3.65 5.67 -5.3 5.34 -7 5 C-4.702779 3.25728062 -2.40133271 1.60088848 0 0 Z " fill="#242424" transform="translate(345,303)"/>
<path d="M0 0 C1.32 0.99 2.64 1.98 4 3 C3.67 3.99 3.34 4.98 3 6 C1.35 6 -0.3 6 -2 6 C-1.34 4.02 -0.68 2.04 0 0 Z " fill="#ECEEED" transform="translate(314,258)"/>
<path d="M0 0 C0.99 0 1.98 0 3 0 C3.12375 0.804375 3.2475 1.60875 3.375 2.4375 C3.684375 3.7059375 3.684375 3.7059375 4 5 C4.66 5.33 5.32 5.66 6 6 C5.01 6 4.02 6 3 6 C0.8125 3.5 0.8125 3.5 -1 1 C-0.67 0.67 -0.34 0.34 0 0 Z " fill="#D4D4D4" transform="translate(201,247)"/>
<path d="M0 0 C0.8353125 0.37125 0.8353125 0.37125 1.6875 0.75 C-0.5625 2.8125 -0.5625 2.8125 -3.3125 4.75 C-5.625 4.5 -5.625 4.5 -7.3125 3.75 C-2.88173077 -0.31153846 -2.88173077 -0.31153846 0 0 Z " fill="#D8D8D8" transform="translate(334.3125,237.25)"/>
<path d="M0 0 C0.66 0.33 1.32 0.66 2 1 C2 1.66 2 2.32 2 3 C0.02 3.99 -1.96 4.98 -4 6 C-4.33 5.01 -4.66 4.02 -5 3 C-2.625 1.4375 -2.625 1.4375 0 0 Z " fill="#EAEAEA" transform="translate(136,224)"/>
<path d="M0 0 C2.64 0.66 5.28 1.32 8 2 C6 4 6 4 3.375 4.125 C2.59125 4.08375 1.8075 4.0425 1 4 C0.67 2.68 0.34 1.36 0 0 Z " fill="#0D0D0D" transform="translate(128,184)"/>
<path d="M0 0 C2.03833424 1.2739589 4.03852126 2.61061923 6 4 C6 4.66 6 5.32 6 6 C4.02 5.34 2.04 4.68 0 4 C0 2.68 0 1.36 0 0 Z " fill="#D2D6D5" transform="translate(326,129)"/>
<path d="M0 0 C1.32 0 2.64 0 4 0 C2.25 3.875 2.25 3.875 0 5 C-0.66 4.67 -1.32 4.34 -2 4 C-1.34 2.68 -0.68 1.36 0 0 Z " fill="#EAEAEA" transform="translate(299,221)"/>
<path d="M0 0 C0.66 0.33 1.32 0.66 2 1 C0.35 2.65 -1.3 4.3 -3 6 C-4.32 5.34 -5.64 4.68 -7 4 C-1.7265625 0.77734375 -1.7265625 0.77734375 0 0 Z " fill="#D1D1D1" transform="translate(365,218)"/>
<path d="M0 0 C-0.33 0.66 -0.66 1.32 -1 2 C-2.98 2 -4.96 2 -7 2 C-7.33 2.66 -7.66 3.32 -8 4 C-8.66 3.34 -9.32 2.68 -10 2 C-3.375 -1.125 -3.375 -1.125 0 0 Z " fill="#C0C2C1" transform="translate(283,197)"/>
<path d="M0 0 C-0.33 0.99 -0.66 1.98 -1 3 C-3.5625 4.1875 -3.5625 4.1875 -6 5 C-6.33 4.01 -6.66 3.02 -7 2 C-4 0 -4 0 0 0 Z " fill="#EBEBEB" transform="translate(368,174)"/>
<path d="M0 0 C-1.1875 1.5 -1.1875 1.5 -3 3 C-5.6875 3.1875 -5.6875 3.1875 -8 3 C-8 2.34 -8 1.68 -8 1 C-2.25 -1.125 -2.25 -1.125 0 0 Z " fill="#E0E1E0" transform="translate(128,174)"/>
<path d="M0 0 C1.98 0.66 3.96 1.32 6 2 C5.01 3.485 5.01 3.485 4 5 C2.35 4.01 0.7 3.02 -1 2 C-0.67 1.34 -0.34 0.68 0 0 Z " fill="#E7E9E8" transform="translate(298,123)"/>
<path d="M0 0 C0.66 0 1.32 0 2 0 C2.33 1.98 2.66 3.96 3 6 C1.02 5.34 -0.96 4.68 -3 4 C-3 3.34 -3 2.68 -3 2 C-2.01 2 -1.02 2 0 2 C0 1.34 0 0.68 0 0 Z " fill="#D8D8D8" transform="translate(283,112)"/>
<path d="M0 0 C-0.33 1.65 -0.66 3.3 -1 5 C-3.46800047 3.84826645 -5.04783565 2.95216435 -7 1 C-2.25 0 -2.25 0 0 0 Z " fill="#212322" transform="translate(233,114)"/>
<path d="M0 0 C0.66 0.33 1.32 0.66 2 1 C0.515 3.475 0.515 3.475 -1 6 C-2.32 5.67 -3.64 5.34 -5 5 C-5 4.34 -5 3.68 -5 3 C-2.625 1.3125 -2.625 1.3125 0 0 Z " fill="#1F2120" transform="translate(227,109)"/>
<path d="M0 0 C-0.33 0.99 -0.66 1.98 -1 3 C-2.98 3.33 -4.96 3.66 -7 4 C-7 3.34 -7 2.68 -7 2 C-4.35261084 0.5393715 -3.10551666 0 0 0 Z " fill="#DEDEDE" transform="translate(328,346)"/>
<path d="M0 0 C0.33 0 0.66 0 1 0 C1.25 5.625 1.25 5.625 -1 9 C-1.66 9 -2.32 9 -3 9 C-2.01 6.03 -1.02 3.06 0 0 Z " fill="#BEC0BF" transform="translate(371,313)"/>
<path d="M0 0 C0.66 0.33 1.32 0.66 2 1 C1.25 2.9375 1.25 2.9375 0 5 C-2.125 5.75 -2.125 5.75 -4 6 C-4.33 5.01 -4.66 4.02 -5 3 C-4.360625 2.87625 -3.72125 2.7525 -3.0625 2.625 C-2.0415625 2.315625 -2.0415625 2.315625 -1 2 C-0.67 1.34 -0.34 0.68 0 0 Z " fill="#DADBDB" transform="translate(215,255)"/>
<path d="M0 0 C0.99 0.33 1.98 0.66 3 1 C2.67 3.31 2.34 5.62 2 8 C1.34 8 0.68 8 0 8 C0 5.36 0 2.72 0 0 Z " fill="#B3B5B4" transform="translate(109,250)"/>
<path d="M0 0 C0.99 0.66 1.98 1.32 3 2 C2.34 2.66 1.68 3.32 1 4 C0.35232207 6.57061311 0.35232207 6.57061311 0 9 C-0.66 8.01 -1.32 7.02 -2 6 C-1.125 2.8125 -1.125 2.8125 0 0 Z " fill="#EBEDEC" transform="translate(283,239)"/>
<path d="M0 0 C-2.61941217 1.74627478 -4.03824877 2.38722388 -7 3 C-7 2.34 -7 1.68 -7 1 C-7.66 0.67 -8.32 0.34 -9 0 C-5.93109813 -1.53445094 -3.29905734 -0.54984289 0 0 Z " fill="#E0E2E1" transform="translate(281,204)"/>
<path d="M0 0 C0.66 0.33 1.32 0.66 2 1 C1.6875 3.375 1.6875 3.375 1 6 C0.01 6.66 -0.98 7.32 -2 8 C-2 6.35 -2 4.7 -2 3 C-1.34 3 -0.68 3 0 3 C0 2.01 0 1.02 0 0 Z " fill="#D6D7D7" transform="translate(319,200)"/>
<path d="M0 0 C1.32 0.66 2.64 1.32 4 2 C2.68 3.32 1.36 4.64 0 6 C-0.66 5.01 -1.32 4.02 -2 3 C-1.34 2.01 -0.68 1.02 0 0 Z " fill="#DBDDDC" transform="translate(328,194)"/>
<path d="M0 0 C0.66 0 1.32 0 2 0 C2 1.65 2 3.3 2 5 C0.35 5.66 -1.3 6.32 -3 7 C-2.42655063 4.13275314 -2.1385485 3.1385485 0 1 C0 0.67 0 0.34 0 0 Z " fill="#0E0F0E" transform="translate(343,176)"/>
<path d="M0 0 C0.33 0 0.66 0 1 0 C1.05395478 1.62463842 1.09277195 3.24978541 1.125 4.875 C1.14820313 5.77992188 1.17140625 6.68484375 1.1953125 7.6171875 C1 10 1 10 -1 12 C-2.09898702 8.70303895 -1.87124444 7.59505097 -1.0625 4.3125 C-0.86785156 3.50425781 -0.67320312 2.69601563 -0.47265625 1.86328125 C-0.31667969 1.24839844 -0.16070312 0.63351563 0 0 Z " fill="#B5B5B5" transform="translate(260,149)"/>
<path d="M0 0 C0.33 0 0.66 0 1 0 C1 2.97 1 5.94 1 9 C0.01 8.01 -0.98 7.02 -2 6 C-1.7181953 3.67511119 -1.04553582 2.09107165 0 0 Z " fill="#171717" transform="translate(259,147)"/>
<path d="M0 0 C1.98 0.99 3.96 1.98 6 3 C5.01 3.66 4.02 4.32 3 5 C1.68 4.34 0.36 3.68 -1 3 C-0.67 2.01 -0.34 1.02 0 0 Z " fill="#111514" transform="translate(322,130)"/>
<path d="M0 0 C-0.639375 0.103125 -1.27875 0.20625 -1.9375 0.3125 C-2.9584375 0.6528125 -2.9584375 0.6528125 -4 1 C-4.33 1.99 -4.66 2.98 -5 4 C-6.32 3.34 -7.64 2.68 -9 2 C-3.375 -1.125 -3.375 -1.125 0 0 Z " fill="#202221" transform="translate(241,104)"/>
</svg>
